<svg xmlns="http://www.w3.org/2000/svg" viewBox="0 0 900 700" preserveAspectRatio="xMidYMid slice"><defs><linearGradient id="a" x1="0" y1="0" x2="0" y2="1"><stop offset="0" stop-color="#2c4a3d"/><stop offset="1" stop-color="#c9d3c4"/></linearGradient></defs><rect width="900" height="700" fill="url(#a)"/><circle cx="214.2" cy="108.8" r="0.84" fill="#fff" fill-opacity="0.74"/><circle cx="563.1" cy="13.1" r="0.42" fill="#fff" fill-opacity="0.89"/><circle cx="233.4" cy="46.9" r="1.59" fill="#fff" fill-opacity="0.66"/><circle cx="752.8" cy="95.3" r="1.17" fill="#fff" fill-opacity="0.45"/><circle cx="571.4" cy="173.6" r="1.03" fill="#fff" fill-opacity="0.83"/><circle cx="604.3" cy="12.8" r="1.31" fill="#fff" fill-opacity="0.73"/><circle cx="271.1" cy="6.2" r="1.44" fill="#fff" fill-opacity="0.66"/><circle cx="646.9" cy="175.8" r="1.26" fill="#fff" fill-opacity="0.95"/><circle cx="355.5" cy="160.2" r="0.93" fill="#fff" fill-opacity="0.96"/><circle cx="791.0" cy="19.5" r="0.56" fill="#fff" fill-opacity="0.49"/><circle cx="868.9" cy="87.2" r="1.15" fill="#fff" fill-opacity="0.55"/><circle cx="456.5" cy="77.2" r="0.82" fill="#fff" fill-opacity="0.73"/><circle cx="525.8" cy="180.8" r="1.22" fill="#fff" fill-opacity="0.95"/><circle cx="770.8" cy="198.2" r="1.21" fill="#fff" fill-opacity="0.46"/><circle cx="774.6" cy="192.9" r="1.49" fill="#fff" fill-opacity="0.72"/><circle cx="642.4" cy="42.2" r="1.40" fill="#fff" fill-opacity="0.72"/><circle cx="256.5" cy="12.7" r="1.42" fill="#fff" fill-opacity="0.99"/><circle cx="79.7" cy="160.1" r="0.89" fill="#fff" fill-opacity="0.45"/><circle cx="264.5" cy="153.8" r="1.45" fill="#fff" fill-opacity="0.38"/><circle cx="553.1" cy="9.0" r="1.26" fill="#fff" fill-opacity="0.57"/><circle cx="792.8" cy="196.1" r="1.01" fill="#fff" fill-opacity="1.00"/><circle cx="278.7" cy="15.4" r="1.12" fill="#fff" fill-opacity="0.37"/><circle cx="177.6" cy="81.6" r="1.13" fill="#fff" fill-opacity="0.45"/><circle cx="38.2" cy="173.6" r="0.78" fill="#fff" fill-opacity="0.97"/><circle cx="807.0" cy="75.6" r="0.95" fill="#fff" fill-opacity="0.69"/><circle cx="579.5" cy="119.1" r="1.07" fill="#fff" fill-opacity="0.75"/><circle cx="846.6" cy="101.4" r="0.92" fill="#fff" fill-opacity="0.82"/><circle cx="213.9" cy="60.2" r="1.57" fill="#fff" fill-opacity="0.69"/><circle cx="493.6" cy="2.3" r="0.90" fill="#fff" fill-opacity="0.73"/><circle cx="18.0" cy="123.2" r="1.16" fill="#fff" fill-opacity="0.39"/><circle cx="564.6" cy="93.3" r="1.22" fill="#fff" fill-opacity="0.58"/><circle cx="636.3" cy="147.6" r="0.43" fill="#fff" fill-opacity="0.39"/><circle cx="608.4" cy="192.7" r="0.70" fill="#fff" fill-opacity="0.65"/><circle cx="533.4" cy="64.0" r="0.84" fill="#fff" fill-opacity="0.55"/><circle cx="332.2" cy="119.1" r="0.76" fill="#fff" fill-opacity="0.60"/><circle cx="695.0" cy="5.4" r="1.08" fill="#fff" fill-opacity="0.83"/><circle cx="279.0" cy="44.5" r="1.36" fill="#fff" fill-opacity="0.51"/><circle cx="168.7" cy="87.0" r="1.24" fill="#fff" fill-opacity="0.42"/><circle cx="289.8" cy="66.8" r="1.40" fill="#fff" fill-opacity="0.63"/><circle cx="770.0" cy="33.9" r="0.80" fill="#fff" fill-opacity="0.77"/><path d="M0,700 L0,351.9 L40,352.9 L80,351.6 L120,348.5 L160,344.6 L200,340.8 L240,338.0 L280,336.5 L320,336.5 L360,337.5 L400,338.8 L440,339.6 L480,339.0 L520,336.6 L560,332.2 L600,326.2 L640,319.3 L680,312.7 L720,307.3 L760,304.0 L800,303.4 L840,305.3 L880,309.5 L920,315.0 L900,700Z" fill="#547563"/><path d="M-5.9,233.3 L4.2,257.6 L-1.7,248.4 L7.4,282.0 L-0.3,272.7 L10.6,306.3 L1.0,297.0 L13.8,330.6 L2.4,321.4 L17.1,355.0 L-3.6,355.0 L-3.6,365.5 L-8.2,365.5 L-8.2,355.0 L-28.9,355.0 L-14.2,321.4 L-25.6,330.6 L-12.8,297.0 L-22.4,306.3 L-11.5,272.7 L-19.2,282.0 L-10.1,248.4 L-16.0,257.6Z" fill="#547563"/><path d="M19.4,261.5 L27.9,280.8 L23.0,273.5 L30.6,300.2 L24.1,292.8 L33.3,319.6 L25.2,312.2 L36.1,338.9 L26.4,331.6 L38.8,358.3 L21.3,358.3 L21.3,366.7 L17.4,366.7 L17.4,358.3 L-0.0,358.3 L12.4,331.6 L2.7,338.9 L13.5,312.2 L5.4,319.6 L14.6,292.8 L8.1,300.2 L15.8,273.5 L10.8,280.8Z" fill="#547563"/><path d="M65.2,273.9 L73.3,290.9 L68.6,284.4 L75.8,307.9 L69.7,301.4 L78.4,324.9 L70.8,318.4 L81.0,341.9 L71.8,335.4 L83.5,358.9 L67.1,358.9 L67.1,366.3 L63.4,366.3 L63.4,358.9 L46.9,358.9 L58.6,335.4 L49.5,341.9 L59.7,318.4 L52.1,324.9 L60.8,301.4 L54.6,307.9 L61.9,284.4 L57.2,290.9Z" fill="#547563"/><path d="M68.5,240.9 L80.6,264.0 L73.6,255.2 L84.5,287.0 L75.2,278.2 L88.4,310.1 L76.8,301.3 L92.2,333.1 L78.5,324.3 L96.1,356.1 L71.2,356.1 L71.2,366.2 L65.7,366.2 L65.7,356.1 L40.9,356.1 L58.5,324.3 L44.7,333.1 L60.1,301.3 L48.6,310.1 L61.7,278.2 L52.5,287.0 L63.4,255.2 L56.3,264.0Z" fill="#547563"/><path d="M128.0,230.2 L140.1,254.4 L133.1,245.2 L143.9,278.6 L134.7,269.4 L147.8,302.8 L136.3,293.6 L151.6,327.0 L137.9,317.8 L155.5,351.2 L130.8,351.2 L130.8,361.8 L125.3,361.8 L125.3,351.2 L100.6,351.2 L118.1,317.8 L104.5,327.0 L119.8,293.6 L108.3,302.8 L121.4,269.4 L112.1,278.6 L123.0,245.2 L116.0,254.4Z" fill="#547563"/><path d="M153.6,229.3 L165.6,253.2 L158.6,244.1 L169.4,277.1 L160.2,268.0 L173.2,301.0 L161.8,291.9 L177.0,324.9 L163.4,315.8 L180.8,348.9 L156.3,348.9 L156.3,359.3 L150.9,359.3 L150.9,348.9 L126.3,348.9 L143.7,315.8 L130.1,324.9 L145.3,291.9 L134.0,301.0 L146.9,268.0 L137.8,277.1 L148.5,244.1 L141.6,253.2Z" fill="#547563"/><path d="M265.2,224.3 L275.6,247.6 L269.6,238.7 L278.9,270.9 L271.0,262.0 L282.2,294.2 L272.3,285.3 L285.5,317.5 L273.7,308.6 L288.8,340.8 L267.6,340.8 L267.6,350.9 L262.8,350.9 L262.8,340.8 L241.6,340.8 L256.7,308.6 L244.9,317.5 L258.1,285.3 L248.2,294.2 L259.4,262.0 L251.5,270.9 L260.8,238.7 L254.8,247.6Z" fill="#547563"/><path d="M405.2,183.2 L422.4,214.4 L412.4,202.5 L427.9,245.7 L414.7,233.8 L433.3,276.9 L417.0,265.0 L438.8,308.2 L419.3,296.3 L444.2,339.4 L409.1,339.4 L409.1,353.0 L401.3,353.0 L401.3,339.4 L366.2,339.4 L391.1,296.3 L371.7,308.2 L393.4,265.0 L377.1,276.9 L395.7,233.8 L382.6,245.7 L398.0,202.5 L388.1,214.4Z" fill="#547563"/><path d="M417.7,196.1 L432.4,225.0 L423.9,214.0 L437.1,253.9 L425.8,242.9 L441.8,282.9 L427.8,271.9 L446.4,311.8 L429.8,300.8 L451.1,340.7 L421.1,340.7 L421.1,353.3 L414.4,353.3 L414.4,340.7 L384.3,340.7 L405.6,300.8 L389.0,311.8 L407.6,271.9 L393.7,282.9 L409.6,242.9 L398.3,253.9 L411.5,214.0 L403.0,225.0Z" fill="#547563"/><path d="M457.4,238.3 L466.7,259.5 L461.3,251.5 L469.7,280.7 L462.5,272.7 L472.6,301.9 L463.8,293.9 L475.6,323.1 L465.0,315.1 L478.5,344.3 L459.5,344.3 L459.5,353.6 L455.3,353.6 L455.3,344.3 L436.2,344.3 L449.7,315.1 L439.2,323.1 L451.0,293.9 L442.1,301.9 L452.2,272.7 L445.1,280.7 L453.5,251.5 L448.1,259.5Z" fill="#547563"/><path d="M461.2,240.4 L469.9,261.2 L464.8,253.3 L472.6,282.0 L466.0,274.1 L475.4,302.8 L467.2,294.9 L478.1,323.6 L468.3,315.7 L480.9,344.5 L463.2,344.5 L463.2,353.5 L459.2,353.5 L459.2,344.5 L441.5,344.5 L454.1,315.7 L444.2,323.6 L455.2,294.9 L447.0,302.8 L456.4,274.1 L449.8,282.0 L457.6,253.3 L452.5,261.2Z" fill="#547563"/><path d="M506.2,200.4 L519.1,228.2 L511.6,217.6 L523.2,256.0 L513.3,245.4 L527.3,283.9 L515.1,273.3 L531.4,311.7 L516.8,301.1 L535.5,339.5 L509.1,339.5 L509.1,351.7 L503.3,351.7 L503.3,339.5 L476.8,339.5 L495.6,301.1 L480.9,311.7 L497.3,273.3 L485.0,283.9 L499.0,245.4 L489.2,256.0 L500.8,217.6 L493.3,228.2Z" fill="#547563"/><path d="M532.1,191.7 L545.5,220.7 L537.8,209.7 L549.8,249.8 L539.6,238.7 L554.1,278.8 L541.4,267.7 L558.3,307.8 L543.1,296.8 L562.6,336.8 L535.2,336.8 L535.2,349.4 L529.1,349.4 L529.1,336.8 L501.7,336.8 L521.1,296.8 L505.9,307.8 L522.9,267.7 L510.2,278.8 L524.7,238.7 L514.5,249.8 L526.5,209.7 L518.7,220.7Z" fill="#547563"/><path d="M558.6,179.7 L574.8,210.4 L565.4,198.7 L580.0,241.0 L567.6,229.4 L585.1,271.7 L569.8,260.0 L590.3,302.4 L571.9,290.7 L595.4,333.0 L562.3,333.0 L562.3,346.4 L554.9,346.4 L554.9,333.0 L521.8,333.0 L545.3,290.7 L527.0,302.4 L547.5,260.0 L532.1,271.7 L549.7,229.4 L537.3,241.0 L551.8,198.7 L542.4,210.4Z" fill="#547563"/><path d="M572.1,254.5 L579.3,271.0 L575.1,264.7 L581.6,287.6 L576.1,281.3 L583.9,304.2 L577.1,297.9 L586.2,320.7 L578.0,314.4 L588.5,337.3 L573.7,337.3 L573.7,344.5 L570.4,344.5 L570.4,337.3 L555.6,337.3 L566.2,314.4 L558.0,320.7 L567.1,297.9 L560.3,304.2 L568.1,281.3 L562.6,287.6 L569.1,264.7 L564.9,271.0Z" fill="#547563"/><path d="M594.7,178.2 L608.9,208.2 L600.7,196.8 L613.4,238.1 L602.5,226.7 L617.9,268.1 L604.4,256.7 L622.4,298.1 L606.3,286.7 L627.0,328.0 L597.9,328.0 L597.9,341.0 L591.5,341.0 L591.5,328.0 L562.4,328.0 L583.0,286.7 L566.9,298.1 L584.9,256.7 L571.5,268.1 L586.8,226.7 L576.0,238.1 L588.7,196.8 L580.5,208.2Z" fill="#547563"/><path d="M631.8,166.3 L646.2,197.3 L637.9,185.5 L650.8,228.3 L639.8,216.5 L655.3,259.3 L641.7,247.5 L659.9,290.3 L643.6,278.5 L664.5,321.3 L635.1,321.3 L635.1,334.8 L628.6,334.8 L628.6,321.3 L599.2,321.3 L620.0,278.5 L603.8,290.3 L622.0,247.5 L608.3,259.3 L623.9,216.5 L612.9,228.3 L625.8,185.5 L617.5,197.3Z" fill="#547563"/><path d="M725.4,224.9 L734.2,242.5 L729.1,235.8 L736.9,260.2 L730.2,253.4 L739.7,277.8 L731.4,271.1 L742.5,295.4 L732.6,288.7 L745.3,313.1 L727.4,313.1 L727.4,320.7 L723.4,320.7 L723.4,313.1 L705.5,313.1 L718.2,288.7 L708.3,295.4 L719.4,271.1 L711.1,277.8 L720.5,253.4 L713.8,260.2 L721.7,235.8 L716.6,242.5Z" fill="#547563"/><path d="M741.1,167.0 L753.5,195.0 L746.3,184.4 L757.5,223.0 L748.0,212.4 L761.5,251.0 L749.6,240.4 L765.4,279.1 L751.3,268.4 L769.4,307.1 L743.9,307.1 L743.9,319.3 L738.2,319.3 L738.2,307.1 L712.7,307.1 L730.8,268.4 L716.7,279.1 L732.5,240.4 L720.7,251.0 L734.2,212.4 L724.6,223.0 L735.8,184.4 L728.6,195.0Z" fill="#547563"/><path d="M848.8,223.1 L856.9,241.0 L852.2,234.2 L859.4,258.8 L853.2,252.0 L862.0,276.6 L854.3,269.8 L864.6,294.5 L855.4,287.7 L867.2,312.3 L850.6,312.3 L850.6,320.1 L846.9,320.1 L846.9,312.3 L830.3,312.3 L842.1,287.7 L832.9,294.5 L843.2,269.8 L835.5,276.6 L844.3,252.0 L838.1,258.8 L845.4,234.2 L840.7,241.0Z" fill="#547563"/><path d="M886.9,157.2 L902.7,188.0 L893.5,176.3 L907.8,218.7 L895.6,207.0 L912.8,249.5 L897.8,237.8 L917.8,280.2 L899.9,268.5 L922.9,311.0 L890.5,311.0 L890.5,324.4 L883.3,324.4 L883.3,311.0 L850.9,311.0 L873.9,268.5 L855.9,280.2 L876.0,237.8 L860.9,249.5 L878.1,207.0 L866.0,218.7 L880.2,176.3 L871.0,188.0Z" fill="#547563"/><path d="M903.3,227.2 L911.3,245.4 L906.7,238.5 L913.9,263.7 L907.7,256.8 L916.5,282.0 L908.8,275.1 L919.1,300.3 L909.9,293.4 L921.6,318.6 L905.1,318.6 L905.1,326.6 L901.4,326.6 L901.4,318.6 L884.9,318.6 L896.6,293.4 L887.5,300.3 L897.7,275.1 L890.0,282.0 L898.8,256.8 L892.6,263.7 L899.9,238.5 L895.2,245.4Z" fill="#547563"/><rect y="470" width="900" height="230" fill="#1c3026"/><path d="M90.0,90.0 L131.8,176.5 L107.6,143.6 L145.1,263.0 L113.1,230.1 L158.4,349.4 L118.7,316.5 L171.7,435.9 L124.3,403.0 L185.0,522.4 L99.5,522.4 L99.5,560.0 L80.5,560.0 L80.5,522.4 L-5.0,522.4 L55.7,403.0 L8.3,435.9 L61.3,316.5 L21.6,349.4 L66.9,230.1 L34.9,263.0 L72.4,143.6 L48.2,176.5Z" fill="#0f1d16"/><path d="M820.0,140.0 L857.4,219.1 L835.7,189.0 L869.3,298.2 L840.7,268.1 L881.2,377.4 L845.7,347.3 L893.1,456.5 L850.7,426.4 L905.0,535.6 L828.5,535.6 L828.5,570.0 L811.5,570.0 L811.5,535.6 L735.0,535.6 L789.3,426.4 L746.9,456.5 L794.3,347.3 L758.8,377.4 L799.3,268.1 L770.7,298.2 L804.3,189.0 L782.6,219.1Z" fill="#0f1d16"/><path d="M30.0,300.0 L56.4,355.2 L41.1,334.2 L64.8,410.4 L44.6,389.4 L73.2,465.6 L48.1,444.6 L81.6,520.8 L51.7,499.8 L90.0,576.0 L36.0,576.0 L36.0,600.0 L24.0,600.0 L24.0,576.0 L-30.0,576.0 L8.3,499.8 L-21.6,520.8 L11.9,444.6 L-13.2,465.6 L15.4,389.4 L-4.8,410.4 L18.9,334.2 L3.6,355.2Z" fill="#16271f"/><g transform="translate(270,560) scale(2.0)"><path d="M86,-118 C70,-150 104,-170 88,-205 C80,-225 96,-240 92,-262" fill="none" stroke="#dfe5dc" stroke-opacity=".28" stroke-width="9" stroke-linecap="round"/><rect x="74" y="-128" width="24" height="46" fill="#3a3f3c"/><rect x="0" y="-84" width="200" height="84" fill="#7a4f34"/><rect x="0" y="-70" width="200" height="1.6" fill="#000" fill-opacity=".22"/><rect x="0" y="-56" width="200" height="1.6" fill="#000" fill-opacity=".22"/><rect x="0" y="-42" width="200" height="1.6" fill="#000" fill-opacity=".22"/><rect x="0" y="-28" width="200" height="1.6" fill="#000" fill-opacity=".22"/><rect x="0" y="-14" width="200" height="1.6" fill="#000" fill-opacity=".22"/><polygon points="-16,-80 100,-142 216,-80" fill="#22292a"/><polygon points="-16,-80 100,-142 100,-136 -8,-80" fill="#fff" fill-opacity=".08"/><rect x="22" y="-64" width="46" height="34" rx="2" fill="#f2a65a"/><rect x="44" y="-64" width="2" height="34" fill="#2b1c12"/><rect x="22" y="-48" width="46" height="2" fill="#2b1c12"/><rect x="138" y="-64" width="40" height="34" rx="2" fill="#f2a65a"/><rect x="157" y="-64" width="2" height="34" fill="#2b1c12"/><rect x="96" y="-60" width="30" height="60" fill="#3b2818"/><circle cx="118" cy="-30" r="2" fill="#f2a65a"/><rect x="-6" y="-2" width="212" height="6" fill="#1a1f1c"/></g><rect y="560" width="900" height="140" fill="#14231c"/><rect x="210" y="562" width="470" height="12" fill="#0f1a15" fill-opacity=".5"/></svg>