<svg xmlns="http://www.w3.org/2000/svg" viewBox="0 0 600 750" preserveAspectRatio="xMidYMid slice"><defs><linearGradient id="d0" x1="0" y1="0" x2="0" y2="1"><stop offset="0" stop-color="#101426"/><stop offset="0.42" stop-color="#232a44"/><stop offset="0.7" stop-color="#4f4358"/><stop offset="0.88" stop-color="#9a6a55"/><stop offset="1" stop-color="#d0925a"/></linearGradient><radialGradient id="d1"><stop offset="0" stop-color="#f6c56f" stop-opacity="0.16"/><stop offset="1" stop-color="#f6c56f" stop-opacity="0"/></radialGradient><linearGradient id="d2" x1="0" y1="0" x2="0" y2="1"><stop offset="0" stop-color="#ffdc90"/><stop offset="1" stop-color="#dc8636"/></linearGradient><radialGradient id="d3"><stop offset="0" stop-color="#f6c56f" stop-opacity="0.55"/><stop offset="1" stop-color="#f6c56f" stop-opacity="0"/></radialGradient><radialGradient id="d4"><stop offset="0" stop-color="#f6c56f" stop-opacity="0.4"/><stop offset="1" stop-color="#f6c56f" stop-opacity="0"/></radialGradient><radialGradient id="d5"><stop offset="0" stop-color="#f6c56f" stop-opacity="0.38"/><stop offset="1" stop-color="#f6c56f" stop-opacity="0"/></radialGradient></defs><rect width="600" height="750" fill="url(#d0)"/><circle cx="413.9" cy="61.9" r="1.10" fill="#fff" fill-opacity="0.48"/><circle cx="475.6" cy="81.0" r="1.29" fill="#fff" fill-opacity="0.47"/><circle cx="141.6" cy="189.4" r="0.40" fill="#fff" fill-opacity="0.27"/><circle cx="41.6" cy="219.5" r="1.27" fill="#fff" fill-opacity="0.19"/><circle cx="25.4" cy="87.3" r="1.50" fill="#fff" fill-opacity="0.58"/><circle cx="369.5" cy="328.1" r="0.44" fill="#fff" fill-opacity="0.09"/><circle cx="69.5" cy="186.6" r="1.45" fill="#fff" fill-opacity="0.27"/><circle cx="490.5" cy="58.1" r="0.54" fill="#fff" fill-opacity="0.73"/><circle cx="331.2" cy="169.9" r="0.78" fill="#fff" fill-opacity="0.33"/><circle cx="22.3" cy="70.1" r="1.35" fill="#fff" fill-opacity="0.33"/><circle cx="125.1" cy="292.6" r="1.47" fill="#fff" fill-opacity="0.24"/><circle cx="457.7" cy="283.0" r="1.04" fill="#fff" fill-opacity="0.23"/><circle cx="285.8" cy="45.9" r="1.31" fill="#fff" fill-opacity="0.34"/><circle cx="532.5" cy="346.2" r="0.85" fill="#fff" fill-opacity="0.08"/><circle cx="231.5" cy="169.2" r="1.49" fill="#fff" fill-opacity="0.30"/><circle cx="56.0" cy="10.1" r="1.19" fill="#fff" fill-opacity="0.87"/><circle cx="294.9" cy="186.0" r="1.01" fill="#fff" fill-opacity="0.40"/><circle cx="365.3" cy="83.3" r="1.01" fill="#fff" fill-opacity="0.52"/><circle cx="102.1" cy="67.8" r="0.78" fill="#fff" fill-opacity="0.71"/><circle cx="358.3" cy="130.0" r="0.74" fill="#fff" fill-opacity="0.22"/><circle cx="488.2" cy="24.6" r="1.25" fill="#fff" fill-opacity="0.46"/><circle cx="405.5" cy="256.3" r="1.39" fill="#fff" fill-opacity="0.33"/><circle cx="593.5" cy="152.6" r="1.46" fill="#fff" fill-opacity="0.40"/><circle cx="294.5" cy="331.2" r="0.81" fill="#fff" fill-opacity="0.08"/><circle cx="97.4" cy="328.6" r="0.48" fill="#fff" fill-opacity="0.16"/><circle cx="289.9" cy="290.2" r="1.32" fill="#fff" fill-opacity="0.08"/><circle cx="173.9" cy="96.7" r="0.86" fill="#fff" fill-opacity="0.28"/><circle cx="202.8" cy="26.0" r="1.39" fill="#fff" fill-opacity="0.83"/><circle cx="287.4" cy="279.7" r="0.68" fill="#fff" fill-opacity="0.28"/><circle cx="437.2" cy="197.1" r="0.43" fill="#fff" fill-opacity="0.20"/><circle cx="477.1" cy="314.3" r="1.37" fill="#fff" fill-opacity="0.15"/><circle cx="348.7" cy="159.8" r="1.33" fill="#fff" fill-opacity="0.28"/><circle cx="165.6" cy="200.4" r="1.25" fill="#fff" fill-opacity="0.13"/><circle cx="572.4" cy="257.0" r="0.43" fill="#fff" fill-opacity="0.24"/><circle cx="511.0" cy="241.4" r="1.04" fill="#fff" fill-opacity="0.17"/><circle cx="575.2" cy="152.1" r="1.40" fill="#fff" fill-opacity="0.21"/><circle cx="56.4" cy="35.6" r="0.43" fill="#fff" fill-opacity="0.49"/><circle cx="520.4" cy="52.8" r="1.12" fill="#fff" fill-opacity="0.29"/><circle cx="194.6" cy="202.0" r="0.94" fill="#fff" fill-opacity="0.20"/><circle cx="110.4" cy="62.3" r="0.82" fill="#fff" fill-opacity="0.60"/><circle cx="27.7" cy="206.3" r="1.18" fill="#fff" fill-opacity="0.41"/><circle cx="474.4" cy="290.3" r="0.41" fill="#fff" fill-opacity="0.16"/><circle cx="458.4" cy="23.8" r="0.59" fill="#fff" fill-opacity="0.67"/><circle cx="418.0" cy="94.8" r="0.74" fill="#fff" fill-opacity="0.21"/><circle cx="185.6" cy="145.8" r="1.39" fill="#fff" fill-opacity="0.29"/><circle cx="329.6" cy="188.7" r="1.44" fill="#fff" fill-opacity="0.17"/><circle cx="304.9" cy="225.4" r="1.21" fill="#fff" fill-opacity="0.40"/><circle cx="419.7" cy="116.3" r="0.98" fill="#fff" fill-opacity="0.44"/><circle cx="488.8" cy="23.9" r="1.47" fill="#fff" fill-opacity="0.45"/><circle cx="595.9" cy="119.3" r="0.52" fill="#fff" fill-opacity="0.21"/><path d="M0,750 L0,476.1 L40,473.5 L80,472.4 L120,472.4 L160,473.2 L200,473.9 L240,473.9 L280,472.5 L320,469.5 L360,465.1 L400,459.7 L440,454.3 L480,449.7 L520,446.8 L560,446.1 L600,447.8 L600,750Z" fill="#2b3b3a"/><path d="M-18.0,355.5 L-7.1,380.5 L-13.4,371.0 L-3.6,405.6 L-11.9,396.0 L-0.1,430.6 L-10.5,421.1 L3.4,455.7 L-9.0,446.1 L6.8,480.7 L-15.5,480.7 L-15.5,491.6 L-20.4,491.6 L-20.4,480.7 L-42.8,480.7 L-26.9,446.1 L-39.3,455.7 L-25.5,421.1 L-35.8,430.6 L-24.0,396.0 L-32.3,405.6 L-22.5,371.0 L-28.9,380.5Z" fill="#2b3b3a"/><path d="M1.8,346.1 L15.9,372.5 L7.7,362.5 L20.4,399.0 L9.6,388.9 L24.9,425.5 L11.5,415.4 L29.4,451.9 L13.4,441.9 L33.9,478.4 L5.0,478.4 L5.0,489.9 L-1.4,489.9 L-1.4,478.4 L-30.3,478.4 L-9.8,441.9 L-25.8,451.9 L-7.9,415.4 L-21.3,425.5 L-6.0,388.9 L-16.8,399.0 L-4.1,362.5 L-12.3,372.5Z" fill="#2b3b3a"/><path d="M3.8,387.0 L12.4,405.9 L7.4,398.7 L15.2,424.8 L8.6,417.6 L18.0,443.7 L9.7,436.5 L20.7,462.6 L10.9,455.4 L23.5,481.5 L5.7,481.5 L5.7,489.8 L1.8,489.8 L1.8,481.5 L-16.0,481.5 L-3.4,455.4 L-13.2,462.6 L-2.2,436.5 L-10.4,443.7 L-1.0,417.6 L-7.7,424.8 L0.1,398.7 L-4.9,405.9Z" fill="#2b3b3a"/><path d="M7.1,383.4 L16.1,402.9 L10.9,395.5 L19.0,422.4 L12.1,415.0 L21.9,442.0 L13.3,434.5 L24.7,461.5 L14.5,454.1 L27.6,481.0 L9.1,481.0 L9.1,489.5 L5.0,489.5 L5.0,481.0 L-13.4,481.0 L-0.3,454.1 L-10.5,461.5 L0.9,434.5 L-7.7,442.0 L2.1,415.0 L-4.8,422.4 L3.3,395.5 L-1.9,402.9Z" fill="#2b3b3a"/><path d="M24.3,338.8 L37.0,366.3 L29.7,355.8 L41.1,393.8 L31.4,383.3 L45.1,421.3 L33.1,410.9 L49.2,448.8 L34.8,438.4 L53.2,476.4 L27.2,476.4 L27.2,488.3 L21.4,488.3 L21.4,476.4 L-4.6,476.4 L13.9,438.4 L-0.5,448.8 L15.6,410.9 L3.5,421.3 L17.3,383.3 L7.6,393.8 L19.0,355.8 L11.6,366.3Z" fill="#2b3b3a"/><path d="M54.1,414.8 L59.7,428.1 L56.5,423.0 L61.5,441.3 L57.2,436.3 L63.2,454.6 L57.9,449.6 L65.0,467.9 L58.7,462.8 L66.8,481.2 L55.4,481.2 L55.4,486.9 L52.9,486.9 L52.9,481.2 L41.4,481.2 L49.5,462.8 L43.2,467.9 L50.3,449.6 L45.0,454.6 L51.0,436.3 L46.8,441.3 L51.8,423.0 L48.5,428.1Z" fill="#2b3b3a"/><path d="M58.4,359.4 L71.3,382.8 L63.8,373.9 L75.4,406.3 L65.5,397.3 L79.5,429.7 L67.2,420.8 L83.5,453.2 L69.0,444.2 L87.6,476.6 L61.3,476.6 L61.3,486.8 L55.5,486.8 L55.5,476.6 L29.1,476.6 L47.8,444.2 L33.2,453.2 L49.5,420.8 L37.3,429.7 L51.3,397.3 L41.4,406.3 L53.0,373.9 L45.5,382.8Z" fill="#2b3b3a"/><path d="M59.9,377.1 L69.5,397.3 L64.0,389.6 L72.6,417.4 L65.3,409.8 L75.7,437.6 L66.5,429.9 L78.7,457.8 L67.8,450.1 L81.8,478.0 L62.1,478.0 L62.1,486.8 L57.7,486.8 L57.7,478.0 L38.0,478.0 L52.0,450.1 L41.1,457.8 L53.3,429.9 L44.2,437.6 L54.6,409.8 L47.2,417.4 L55.9,389.6 L50.3,397.3Z" fill="#2b3b3a"/><path d="M79.1,372.3 L89.9,393.3 L83.6,385.3 L93.3,414.3 L85.0,406.3 L96.7,435.3 L86.5,427.3 L100.2,456.3 L87.9,448.3 L103.6,477.2 L81.5,477.2 L81.5,486.4 L76.6,486.4 L76.6,477.2 L54.6,477.2 L70.2,448.3 L58.0,456.3 L71.7,427.3 L61.4,435.3 L73.1,406.3 L64.9,414.3 L74.6,385.3 L68.3,393.3Z" fill="#2b3b3a"/><path d="M85.6,398.5 L93.5,414.7 L88.9,408.5 L96.1,430.8 L90.0,424.7 L98.6,447.0 L91.0,440.8 L101.2,463.1 L92.1,457.0 L103.7,479.3 L87.4,479.3 L87.4,486.3 L83.8,486.3 L83.8,479.3 L67.4,479.3 L79.0,457.0 L70.0,463.1 L80.1,440.8 L72.5,447.0 L81.2,424.7 L75.1,430.8 L82.2,408.5 L77.6,414.7Z" fill="#2b3b3a"/><path d="M99.6,371.7 L110.1,392.8 L104.0,384.8 L113.4,413.9 L105.4,405.9 L116.7,435.0 L106.8,426.9 L120.0,456.0 L108.2,448.0 L123.4,477.1 L102.0,477.1 L102.0,486.3 L97.2,486.3 L97.2,477.1 L75.9,477.1 L91.0,448.0 L79.2,456.0 L92.4,426.9 L82.5,435.0 L93.8,405.9 L85.8,413.9 L95.2,384.8 L89.2,392.8Z" fill="#2b3b3a"/><path d="M113.5,401.9 L120.2,417.4 L116.3,411.5 L122.3,433.0 L117.2,427.1 L124.4,448.5 L118.1,442.6 L126.6,464.1 L119.0,458.1 L128.7,479.6 L115.0,479.6 L115.0,486.4 L112.0,486.4 L112.0,479.6 L98.3,479.6 L108.0,458.1 L100.4,464.1 L108.9,442.6 L102.5,448.5 L109.8,427.1 L104.7,433.0 L110.7,411.5 L106.8,417.4Z" fill="#2b3b3a"/><path d="M118.2,388.6 L128.0,406.6 L122.3,399.7 L131.1,424.6 L123.6,417.7 L134.1,442.6 L124.9,435.7 L137.2,460.6 L126.2,453.7 L140.3,478.6 L120.5,478.6 L120.5,486.4 L116.0,486.4 L116.0,478.6 L96.2,478.6 L110.3,453.7 L99.3,460.6 L111.6,435.7 L102.4,442.6 L112.9,417.7 L105.4,424.6 L114.2,399.7 L108.5,406.6Z" fill="#2b3b3a"/><path d="M128.6,388.8 L137.5,406.8 L132.4,400.0 L140.3,424.8 L133.5,418.0 L143.1,442.8 L134.7,435.9 L145.9,460.8 L135.9,453.9 L148.8,478.7 L130.7,478.7 L130.7,486.6 L126.6,486.6 L126.6,478.7 L108.5,478.7 L121.4,453.9 L111.3,460.8 L122.6,435.9 L114.2,442.8 L123.7,418.0 L117.0,424.8 L124.9,400.0 L119.8,406.8Z" fill="#2b3b3a"/><path d="M128.9,392.0 L136.3,409.4 L132.0,402.8 L138.6,426.8 L133.0,420.2 L140.9,444.2 L134.0,437.6 L143.2,461.6 L134.9,455.0 L145.6,479.0 L130.6,479.0 L130.6,486.6 L127.3,486.6 L127.3,479.0 L112.3,479.0 L122.9,455.0 L114.6,461.6 L123.9,437.6 L116.9,444.2 L124.9,420.2 L119.3,426.8 L125.8,402.8 L121.6,409.4Z" fill="#2b3b3a"/><path d="M130.3,411.3 L137.6,425.2 L133.4,419.9 L139.9,439.0 L134.3,433.8 L142.2,452.9 L135.3,447.6 L144.5,466.7 L136.3,461.5 L146.8,480.6 L132.0,480.6 L132.0,486.6 L128.7,486.6 L128.7,480.6 L113.8,480.6 L124.4,461.5 L116.2,466.7 L125.3,447.6 L118.5,452.9 L126.3,433.8 L120.8,439.0 L127.3,419.9 L123.1,425.2Z" fill="#2b3b3a"/><path d="M131.1,354.4 L142.3,378.8 L135.8,369.5 L145.8,403.1 L137.3,393.8 L149.4,427.4 L138.8,418.1 L153.0,451.7 L140.3,442.5 L156.5,476.0 L133.6,476.0 L133.6,486.6 L128.5,486.6 L128.5,476.0 L105.6,476.0 L121.9,442.5 L109.2,451.7 L123.4,418.1 L112.8,427.4 L124.9,393.8 L116.3,403.1 L126.4,369.5 L119.9,378.8Z" fill="#2b3b3a"/><path d="M190.5,363.1 L202.1,386.1 L195.4,377.3 L205.7,409.0 L196.9,400.3 L209.4,432.0 L198.5,423.2 L213.1,454.9 L200.0,446.2 L216.8,477.8 L193.1,477.8 L193.1,487.8 L187.9,487.8 L187.9,477.8 L164.3,477.8 L181.0,446.2 L167.9,454.9 L182.6,423.2 L171.6,432.0 L184.1,400.3 L175.3,409.0 L185.7,377.3 L179.0,386.1Z" fill="#2b3b3a"/><path d="M199.5,346.0 L213.7,372.1 L205.4,362.2 L218.2,398.3 L207.3,388.3 L222.7,424.4 L209.2,414.4 L227.2,450.5 L211.1,440.5 L231.8,476.6 L202.7,476.6 L202.7,487.9 L196.2,487.9 L196.2,476.6 L167.2,476.6 L187.8,440.5 L171.7,450.5 L189.7,414.4 L176.2,424.4 L191.6,388.3 L180.7,398.3 L193.5,362.2 L185.3,372.1Z" fill="#2b3b3a"/><path d="M215.8,385.5 L226.2,404.4 L220.2,397.2 L229.4,423.2 L221.5,416.1 L232.7,442.1 L222.9,434.9 L236.0,461.0 L224.3,453.8 L239.3,479.8 L218.2,479.8 L218.2,488.0 L213.5,488.0 L213.5,479.8 L192.3,479.8 L207.3,453.8 L195.6,461.0 L208.7,434.9 L198.9,442.1 L210.1,416.1 L202.2,423.2 L211.5,397.2 L205.5,404.4Z" fill="#2b3b3a"/><path d="M217.5,341.1 L230.7,368.2 L223.0,357.9 L235.0,395.2 L224.8,384.9 L239.2,422.2 L226.6,412.0 L243.4,449.3 L228.4,439.0 L247.7,476.3 L220.5,476.3 L220.5,488.1 L214.5,488.1 L214.5,476.3 L187.3,476.3 L206.6,439.0 L191.5,449.3 L208.3,412.0 L195.7,422.2 L210.1,384.9 L200.0,395.2 L211.9,357.9 L204.2,368.2Z" fill="#2b3b3a"/><path d="M270.0,346.3 L282.3,372.2 L275.2,362.4 L286.3,398.1 L276.8,388.3 L290.2,424.0 L278.5,414.1 L294.1,449.9 L280.1,440.0 L298.1,475.7 L272.8,475.7 L272.8,487.0 L267.2,487.0 L267.2,475.7 L241.9,475.7 L259.9,440.0 L245.9,449.9 L261.5,414.1 L249.8,424.0 L263.2,388.3 L253.7,398.1 L264.8,362.4 L257.7,372.2Z" fill="#2b3b3a"/><path d="M284.8,386.2 L293.0,404.6 L288.3,397.6 L295.6,423.0 L289.4,416.0 L298.2,441.4 L290.4,434.4 L300.8,459.8 L291.5,452.8 L303.3,478.2 L286.7,478.2 L286.7,486.2 L283.0,486.2 L283.0,478.2 L266.4,478.2 L278.2,452.8 L268.9,459.8 L279.3,434.4 L271.5,441.4 L280.3,416.0 L274.1,423.0 L281.4,397.6 L276.7,404.6Z" fill="#2b3b3a"/><path d="M286.6,346.0 L297.7,371.8 L291.3,362.0 L301.2,397.6 L292.8,387.8 L304.8,423.4 L294.2,413.6 L308.3,449.1 L295.7,439.3 L311.8,474.9 L289.1,474.9 L289.1,486.1 L284.1,486.1 L284.1,474.9 L261.4,474.9 L277.5,439.3 L265.0,449.1 L279.0,413.6 L268.5,423.4 L280.5,387.8 L272.0,397.6 L282.0,362.0 L275.5,371.8Z" fill="#2b3b3a"/><path d="M290.2,410.3 L297.5,424.2 L293.3,419.0 L299.8,438.1 L294.2,432.9 L302.1,452.0 L295.2,446.8 L304.4,465.9 L296.2,460.7 L306.7,479.8 L291.9,479.8 L291.9,485.9 L288.6,485.9 L288.6,479.8 L273.7,479.8 L284.3,460.7 L276.0,465.9 L285.2,446.8 L278.3,452.0 L286.2,432.9 L280.6,438.1 L287.2,419.0 L283.0,424.2Z" fill="#2b3b3a"/><path d="M298.4,353.4 L310.0,377.7 L303.3,368.4 L313.7,402.0 L304.8,392.7 L317.3,426.2 L306.4,417.0 L321.0,450.5 L307.9,441.3 L324.7,474.8 L301.1,474.8 L301.1,485.3 L295.8,485.3 L295.8,474.8 L272.2,474.8 L289.0,441.3 L275.9,450.5 L290.5,417.0 L279.5,426.2 L292.0,392.7 L283.2,402.0 L293.6,368.4 L286.9,377.7Z" fill="#2b3b3a"/><path d="M303.3,348.0 L313.7,373.2 L307.6,363.6 L317.0,398.4 L309.0,388.8 L320.3,423.6 L310.4,414.0 L323.6,448.8 L311.8,439.2 L327.0,474.0 L305.6,474.0 L305.6,485.0 L300.9,485.0 L300.9,474.0 L279.5,474.0 L294.7,439.2 L282.9,448.8 L296.1,414.0 L286.2,423.6 L297.5,388.8 L289.5,398.4 L298.9,363.6 L292.8,373.2Z" fill="#2b3b3a"/><path d="M308.0,393.9 L315.4,410.6 L311.1,404.3 L317.8,427.3 L312.1,421.0 L320.2,444.0 L313.1,437.6 L322.6,460.6 L314.1,454.3 L325.0,477.3 L309.7,477.3 L309.7,484.6 L306.3,484.6 L306.3,477.3 L291.0,477.3 L301.8,454.3 L293.4,460.6 L302.8,437.6 L295.7,444.0 L303.8,421.0 L298.1,427.3 L304.8,404.3 L300.5,410.6Z" fill="#2b3b3a"/><path d="M333.3,378.6 L341.5,397.7 L336.7,390.4 L344.1,416.7 L337.8,409.5 L346.7,435.8 L338.9,428.5 L349.3,454.8 L340.0,447.6 L351.9,473.9 L335.1,473.9 L335.1,482.2 L331.4,482.2 L331.4,473.9 L314.6,473.9 L326.5,447.6 L317.2,454.8 L327.6,428.5 L319.8,435.8 L328.7,409.5 L322.5,416.7 L329.8,390.4 L325.1,397.7Z" fill="#2b3b3a"/><path d="M351.7,404.5 L358.0,418.4 L354.3,413.2 L360.0,432.3 L355.2,427.1 L362.0,446.2 L356.0,441.0 L364.1,460.1 L356.9,454.9 L366.1,474.1 L353.1,474.1 L353.1,480.1 L350.3,480.1 L350.3,474.1 L337.3,474.1 L346.5,454.9 L339.3,460.1 L347.3,441.0 L341.3,446.2 L348.2,427.1 L343.4,432.3 L349.0,413.2 L345.4,418.4Z" fill="#2b3b3a"/><path d="M354.6,337.8 L368.9,363.9 L360.6,354.0 L373.5,390.0 L362.5,380.1 L378.0,416.2 L364.5,406.2 L382.6,442.3 L366.4,432.3 L387.1,468.4 L357.9,468.4 L357.9,479.7 L351.4,479.7 L351.4,468.4 L322.1,468.4 L342.9,432.3 L326.7,442.3 L344.8,406.2 L331.2,416.2 L346.7,380.1 L335.8,390.0 L348.6,354.0 L340.3,363.9Z" fill="#2b3b3a"/><path d="M374.2,347.6 L385.5,371.4 L378.9,362.4 L389.1,395.3 L380.4,386.2 L392.7,419.2 L382.0,410.1 L396.3,443.0 L383.5,433.9 L399.9,466.9 L376.7,466.9 L376.7,477.2 L371.6,477.2 L371.6,466.9 L348.4,466.9 L364.9,433.9 L352.0,443.0 L366.4,410.1 L355.6,419.2 L367.9,386.2 L359.2,395.3 L369.4,362.4 L362.8,371.4Z" fill="#2b3b3a"/><path d="M386.4,385.4 L395.4,402.0 L390.2,395.7 L398.3,418.6 L391.4,412.3 L401.2,435.2 L392.6,428.9 L404.0,451.8 L393.8,445.5 L406.9,468.4 L388.5,468.4 L388.5,475.6 L384.3,475.6 L384.3,468.4 L365.9,468.4 L379.0,445.5 L368.8,451.8 L380.2,428.9 L371.6,435.2 L381.4,412.3 L374.5,418.6 L382.6,395.7 L377.4,402.0Z" fill="#2b3b3a"/><path d="M421.5,358.7 L432.0,379.3 L425.9,371.5 L435.3,400.0 L427.3,392.1 L438.7,420.6 L428.7,412.7 L442.0,441.2 L430.1,433.3 L445.4,461.8 L423.8,461.8 L423.8,470.8 L419.1,470.8 L419.1,461.8 L397.5,461.8 L412.8,433.3 L400.9,441.2 L414.2,412.7 L404.2,420.6 L415.6,392.1 L407.6,400.0 L417.0,371.5 L410.9,379.3Z" fill="#2b3b3a"/><path d="M447.0,395.1 L452.9,408.4 L449.5,403.4 L454.7,421.7 L450.3,416.7 L456.6,435.0 L451.0,430.0 L458.4,448.3 L451.8,443.3 L460.2,461.6 L448.4,461.6 L448.4,467.4 L445.7,467.4 L445.7,461.6 L433.8,461.6 L442.3,443.3 L435.7,448.3 L443.1,430.0 L437.5,435.0 L443.8,416.7 L439.4,421.7 L444.6,403.4 L441.2,408.4Z" fill="#2b3b3a"/><path d="M452.8,329.6 L465.9,354.9 L458.3,345.3 L470.1,380.1 L460.0,370.5 L474.2,405.3 L461.8,395.7 L478.4,430.5 L463.5,420.9 L482.6,455.7 L455.7,455.7 L455.7,466.7 L449.8,466.7 L449.8,455.7 L422.9,455.7 L442.0,420.9 L427.1,430.5 L443.7,395.7 L431.3,405.3 L445.5,370.5 L435.5,380.1 L447.2,345.3 L439.6,354.9Z" fill="#2b3b3a"/><path d="M463.1,325.0 L475.8,350.8 L468.4,341.0 L479.9,376.7 L470.1,366.8 L483.9,402.5 L471.8,392.7 L488.0,428.4 L473.5,418.6 L492.0,454.2 L466.0,454.2 L466.0,465.5 L460.2,465.5 L460.2,454.2 L434.1,454.2 L452.6,418.6 L438.2,428.4 L454.3,392.7 L442.2,402.5 L456.0,366.8 L446.3,376.7 L457.7,341.0 L450.3,350.8Z" fill="#2b3b3a"/><path d="M468.2,360.8 L477.6,380.0 L472.1,372.7 L480.6,399.1 L473.4,391.9 L483.5,418.3 L474.6,411.0 L486.5,437.4 L475.9,430.2 L489.5,456.6 L470.3,456.6 L470.3,464.9 L466.1,464.9 L466.1,456.6 L446.9,456.6 L460.5,430.2 L449.8,437.4 L461.7,411.0 L452.8,418.3 L463.0,391.9 L455.8,399.1 L464.2,372.7 L458.8,380.0Z" fill="#2b3b3a"/><path d="M479.4,325.8 L490.8,351.2 L484.2,341.5 L494.4,376.6 L485.7,366.9 L498.1,402.0 L487.2,392.3 L501.7,427.3 L488.8,417.7 L505.4,452.7 L482.0,452.7 L482.0,463.8 L476.8,463.8 L476.8,452.7 L453.4,452.7 L470.0,417.7 L457.0,427.3 L471.5,392.3 L460.6,402.0 L473.0,366.9 L464.3,376.6 L474.6,341.5 L467.9,351.2Z" fill="#2b3b3a"/><path d="M487.3,350.3 L496.5,371.0 L491.2,363.1 L499.5,391.8 L492.4,383.9 L502.4,412.5 L493.6,404.6 L505.4,433.3 L494.9,425.4 L508.3,454.0 L489.4,454.0 L489.4,463.0 L485.2,463.0 L485.2,454.0 L466.3,454.0 L479.7,425.4 L469.2,433.3 L480.9,404.6 L472.1,412.5 L482.2,383.9 L475.1,391.8 L483.4,363.1 L478.0,371.0Z" fill="#2b3b3a"/><path d="M488.0,331.5 L497.9,355.7 L492.1,346.5 L501.0,379.9 L493.5,370.7 L504.1,404.1 L494.8,394.9 L507.3,428.3 L496.1,419.1 L510.4,452.4 L490.2,452.4 L490.2,463.0 L485.8,463.0 L485.8,452.4 L465.6,452.4 L479.9,419.1 L468.7,428.3 L481.2,394.9 L471.9,404.1 L482.5,370.7 L475.0,379.9 L483.9,346.5 L478.1,355.7Z" fill="#2b3b3a"/><path d="M497.0,337.4 L509.5,360.4 L502.3,351.6 L513.5,383.3 L503.9,374.6 L517.4,406.3 L505.6,397.6 L521.4,429.3 L507.3,420.5 L525.4,452.2 L499.9,452.2 L499.9,462.2 L494.2,462.2 L494.2,452.2 L468.7,452.2 L486.8,420.5 L472.6,429.3 L488.4,397.6 L476.6,406.3 L490.1,374.6 L480.6,383.3 L491.8,351.6 L484.5,360.4Z" fill="#2b3b3a"/><path d="M503.2,389.9 L509.7,403.1 L505.9,398.1 L511.8,416.3 L506.8,411.3 L513.8,429.6 L507.7,424.5 L515.9,442.8 L508.5,437.8 L518.0,456.0 L504.7,456.0 L504.7,461.8 L501.7,461.8 L501.7,456.0 L488.4,456.0 L497.9,437.8 L490.5,442.8 L498.7,424.5 L492.6,429.6 L499.6,411.3 L494.6,416.3 L500.5,398.1 L496.7,403.1Z" fill="#2b3b3a"/><path d="M534.2,338.8 L546.0,361.1 L539.1,352.6 L549.7,383.5 L540.7,375.0 L553.5,405.8 L542.3,397.3 L557.3,428.2 L543.9,419.7 L561.0,450.5 L536.9,450.5 L536.9,460.3 L531.5,460.3 L531.5,450.5 L507.3,450.5 L524.5,419.7 L511.1,428.2 L526.0,397.3 L514.8,405.8 L527.6,375.0 L518.6,383.5 L529.2,352.6 L522.3,361.1Z" fill="#2b3b3a"/><path d="M540.0,343.4 L549.6,364.9 L544.0,356.7 L552.6,386.4 L545.3,378.2 L555.6,407.8 L546.6,399.7 L558.6,429.3 L547.8,421.1 L561.7,450.8 L542.2,450.8 L542.2,460.1 L537.9,460.1 L537.9,450.8 L518.4,450.8 L532.2,421.1 L521.4,429.3 L533.5,399.7 L524.4,407.8 L534.8,378.2 L527.5,386.4 L536.0,356.7 L530.5,364.9Z" fill="#2b3b3a"/><path d="M552.1,357.6 L562.4,376.4 L556.4,369.3 L565.7,395.3 L557.8,388.1 L568.9,414.1 L559.2,407.0 L572.2,433.0 L560.6,425.8 L575.4,451.8 L554.5,451.8 L554.5,460.0 L549.8,460.0 L549.8,451.8 L528.8,451.8 L543.7,425.8 L532.1,433.0 L545.1,407.0 L535.4,414.1 L546.5,388.1 L538.6,395.3 L547.8,369.3 L541.9,376.4Z" fill="#2b3b3a"/><path d="M573.9,318.0 L585.0,344.2 L578.6,334.2 L588.6,370.4 L580.1,360.4 L592.1,396.6 L581.6,386.6 L595.7,422.8 L583.0,412.8 L599.2,449.0 L576.4,449.0 L576.4,460.4 L571.3,460.4 L571.3,449.0 L548.5,449.0 L564.7,412.8 L552.1,422.8 L566.2,386.6 L555.6,396.6 L567.7,360.4 L559.2,370.4 L569.2,334.2 L562.7,344.2Z" fill="#2b3b3a"/><path d="M589.3,383.5 L595.3,397.8 L591.8,392.4 L597.2,412.1 L592.6,406.7 L599.1,426.4 L593.4,420.9 L601.0,440.6 L594.2,435.2 L602.9,454.9 L590.6,454.9 L590.6,461.1 L587.9,461.1 L587.9,454.9 L575.6,454.9 L584.3,435.2 L577.5,440.6 L585.1,420.9 L579.4,426.4 L585.9,406.7 L581.4,412.1 L586.7,392.4 L583.3,397.8Z" fill="#2b3b3a"/><path d="M600.0,389.8 L606.2,403.0 L602.6,398.0 L608.2,416.3 L603.5,411.2 L610.2,429.5 L604.3,424.5 L612.2,442.8 L605.1,437.8 L614.2,456.0 L601.4,456.0 L601.4,461.8 L598.6,461.8 L598.6,456.0 L585.8,456.0 L594.9,437.8 L587.8,442.8 L595.7,424.5 L589.8,429.5 L596.6,411.2 L591.8,416.3 L597.4,398.0 L593.8,403.0Z" fill="#2b3b3a"/><path d="M618.4,382.1 L626.4,397.0 L621.8,391.3 L628.9,412.0 L622.8,406.3 L631.4,426.9 L623.9,421.2 L634.0,441.9 L625.0,436.2 L636.5,456.8 L620.2,456.8 L620.2,463.3 L616.6,463.3 L616.6,456.8 L600.4,456.8 L611.9,436.2 L602.9,441.9 L613.0,421.2 L605.4,426.9 L614.0,406.3 L608.0,412.0 L615.1,391.3 L610.5,397.0Z" fill="#2b3b3a"/><path d="M0,750 L0,535.3 L40,532.4 L80,529.2 L120,526.1 L160,523.9 L200,523.1 L240,524.1 L280,526.7 L320,530.7 L360,535.6 L400,540.4 L440,544.7 L480,547.8 L520,549.5 L560,549.8 L600,549.0 L600,750Z" fill="#1a2a24"/><path d="M-4.9,401.1 L10.0,428.4 L1.4,418.0 L14.7,455.7 L3.3,445.4 L19.4,483.1 L5.3,472.7 L24.1,510.4 L7.3,500.0 L28.9,537.7 L-1.5,537.7 L-1.5,549.6 L-8.3,549.6 L-8.3,537.7 L-38.6,537.7 L-17.1,500.0 L-33.9,510.4 L-15.1,472.7 L-29.2,483.1 L-13.1,445.4 L-24.5,455.7 L-11.1,418.0 L-19.7,428.4Z" fill="#1a2a24"/><path d="M11.0,394.2 L25.7,422.6 L17.2,411.8 L30.4,451.0 L19.2,440.2 L35.1,479.4 L21.1,468.6 L39.8,507.8 L23.1,497.0 L44.5,536.2 L14.3,536.2 L14.3,548.5 L7.7,548.5 L7.7,536.2 L-22.5,536.2 L-1.1,497.0 L-17.8,507.8 L0.9,468.6 L-13.1,479.4 L2.8,440.2 L-8.4,451.0 L4.8,411.8 L-3.7,422.6Z" fill="#1a2a24"/><path d="M57.2,320.0 L77.9,361.4 L65.9,345.7 L84.5,402.8 L68.6,387.1 L91.0,444.2 L71.4,428.5 L97.6,485.6 L74.2,469.9 L104.2,527.0 L61.9,527.0 L61.9,545.0 L52.5,545.0 L52.5,527.0 L10.1,527.0 L40.2,469.9 L16.7,485.6 L43.0,428.5 L23.3,444.2 L45.7,387.1 L29.9,402.8 L48.5,345.7 L36.5,361.4Z" fill="#1a2a24"/><path d="M69.8,408.3 L82.9,433.3 L75.3,423.8 L87.1,458.3 L77.1,448.8 L91.3,483.2 L78.8,473.7 L95.4,508.2 L80.6,498.7 L99.6,533.1 L72.8,533.1 L72.8,544.0 L66.9,544.0 L66.9,533.1 L40.1,533.1 L59.1,498.7 L44.2,508.2 L60.8,473.7 L48.4,483.2 L62.6,448.8 L52.6,458.3 L64.3,423.8 L56.7,433.3Z" fill="#1a2a24"/><path d="M97.9,348.3 L113.3,383.9 L104.4,370.3 L118.2,419.5 L106.5,405.9 L123.1,455.1 L108.5,441.5 L128.0,490.7 L110.6,477.1 L133.0,526.2 L101.4,526.2 L101.4,541.7 L94.4,541.7 L94.4,526.2 L62.9,526.2 L85.3,477.1 L67.8,490.7 L87.3,441.5 L72.7,455.1 L89.4,405.9 L77.6,419.5 L91.4,370.3 L82.5,383.9Z" fill="#1a2a24"/><path d="M101.7,416.0 L112.8,439.1 L106.4,430.3 L116.4,462.2 L107.9,453.4 L119.9,485.2 L109.3,476.5 L123.5,508.3 L110.8,499.5 L127.0,531.4 L104.2,531.4 L104.2,541.4 L99.2,541.4 L99.2,531.4 L76.4,531.4 L92.5,499.5 L79.9,508.3 L94.0,476.5 L83.5,485.2 L95.5,453.4 L87.0,462.2 L97.0,430.3 L90.5,439.1Z" fill="#1a2a24"/><path d="M128.3,416.0 L140.6,438.7 L133.5,430.1 L144.5,461.5 L135.1,452.8 L148.4,484.2 L136.7,475.6 L152.3,506.9 L138.4,498.3 L156.2,529.7 L131.1,529.7 L131.1,539.6 L125.5,539.6 L125.5,529.7 L100.5,529.7 L118.3,498.3 L104.4,506.9 L119.9,475.6 L108.3,484.2 L121.5,452.8 L112.2,461.5 L123.2,430.1 L116.1,438.7Z" fill="#1a2a24"/><path d="M178.8,361.7 L194.4,394.0 L185.4,381.7 L199.3,426.3 L187.4,414.0 L204.3,458.6 L189.5,446.3 L209.2,491.0 L191.6,478.7 L214.2,523.3 L182.4,523.3 L182.4,537.4 L175.3,537.4 L175.3,523.3 L143.5,523.3 L166.1,478.7 L148.5,491.0 L168.2,446.3 L153.4,458.6 L170.2,414.0 L158.3,426.3 L172.3,381.7 L163.3,394.0Z" fill="#1a2a24"/><path d="M184.4,372.2 L199.7,402.6 L190.8,391.0 L204.5,432.9 L192.9,421.4 L209.4,463.3 L194.9,451.8 L214.2,493.7 L196.9,482.1 L219.1,524.0 L187.9,524.0 L187.9,537.3 L181.0,537.3 L181.0,524.0 L149.8,524.0 L172.0,482.1 L154.7,493.7 L174.0,451.8 L159.5,463.3 L176.0,421.4 L164.4,432.9 L178.1,391.0 L169.2,402.6Z" fill="#1a2a24"/><path d="M201.2,316.3 L219.5,357.0 L208.9,341.5 L225.3,397.6 L211.3,382.1 L231.2,438.2 L213.8,422.8 L237.0,478.9 L216.2,463.4 L242.8,519.5 L205.4,519.5 L205.4,537.1 L197.1,537.1 L197.1,519.5 L159.6,519.5 L186.2,463.4 L165.4,478.9 L188.6,422.8 L171.3,438.2 L191.1,382.1 L177.1,397.6 L193.5,341.5 L182.9,357.0Z" fill="#1a2a24"/><path d="M342.4,386.3 L357.0,415.9 L348.5,404.6 L361.6,445.6 L350.5,434.3 L366.2,475.2 L352.4,463.9 L370.8,504.9 L354.4,493.6 L375.5,534.5 L345.7,534.5 L345.7,547.4 L339.1,547.4 L339.1,534.5 L309.4,534.5 L330.5,493.6 L314.0,504.9 L332.5,463.9 L318.7,475.2 L334.4,434.3 L323.3,445.6 L336.3,404.6 L327.9,415.9Z" fill="#1a2a24"/><path d="M353.0,396.0 L366.8,424.1 L358.8,413.4 L371.2,452.2 L360.7,441.5 L375.6,480.3 L362.5,469.6 L380.0,508.4 L364.4,497.7 L384.4,536.5 L356.1,536.5 L356.1,548.7 L349.9,548.7 L349.9,536.5 L321.6,536.5 L341.7,497.7 L326.0,508.4 L343.5,469.6 L330.4,480.3 L345.4,441.5 L334.8,452.2 L347.2,413.4 L339.2,424.1Z" fill="#1a2a24"/><path d="M357.3,369.5 L372.8,402.6 L363.8,390.0 L377.7,435.6 L365.9,423.0 L382.7,468.7 L368.0,456.1 L387.6,501.8 L370.0,489.2 L392.5,534.8 L360.8,534.8 L360.8,549.2 L353.8,549.2 L353.8,534.8 L322.1,534.8 L344.6,489.2 L327.0,501.8 L346.7,456.1 L331.9,468.7 L348.7,423.0 L336.9,435.6 L350.8,390.0 L341.8,402.6Z" fill="#1a2a24"/><path d="M364.7,356.1 L382.0,391.8 L372.0,378.2 L387.4,427.5 L374.3,413.9 L392.9,463.2 L376.6,449.6 L398.4,498.9 L378.9,485.3 L403.9,534.6 L368.6,534.6 L368.6,550.1 L360.8,550.1 L360.8,534.6 L325.6,534.6 L350.6,485.3 L331.1,498.9 L352.9,449.6 L336.6,463.2 L355.2,413.9 L342.0,427.5 L357.5,378.2 L347.5,391.8Z" fill="#1a2a24"/><path d="M371.9,421.3 L385.0,445.2 L377.4,436.1 L389.2,469.1 L379.1,460.0 L393.3,492.9 L380.9,483.9 L397.5,516.8 L382.7,507.7 L401.7,540.7 L374.9,540.7 L374.9,551.0 L368.9,551.0 L368.9,540.7 L342.1,540.7 L361.1,507.7 L346.3,516.8 L362.9,483.9 L350.4,492.9 L364.6,460.0 L354.6,469.1 L366.4,436.1 L358.8,445.2Z" fill="#1a2a24"/><path d="M396.9,395.0 L410.6,424.2 L402.7,413.1 L415.0,453.5 L404.5,442.4 L419.4,482.8 L406.3,471.7 L423.7,512.1 L408.2,500.9 L428.1,541.3 L400.0,541.3 L400.0,554.1 L393.8,554.1 L393.8,541.3 L365.7,541.3 L385.6,500.9 L370.1,512.1 L387.5,471.7 L374.5,482.8 L389.3,442.4 L378.8,453.5 L391.1,413.1 L383.2,424.2Z" fill="#1a2a24"/><path d="M418.6,392.2 L434.9,422.5 L425.4,411.0 L440.1,452.7 L427.6,441.2 L445.3,482.9 L429.8,471.4 L450.5,513.2 L432.0,501.7 L455.7,543.4 L422.3,543.4 L422.3,556.5 L414.9,556.5 L414.9,543.4 L381.5,543.4 L405.2,501.7 L386.7,513.2 L407.3,471.4 L391.9,482.9 L409.5,441.2 L397.1,452.7 L411.7,411.0 L402.2,422.5Z" fill="#1a2a24"/><path d="M427.0,332.7 L446.8,374.0 L435.3,358.3 L453.1,415.4 L438.0,399.7 L459.4,456.7 L440.6,441.0 L465.8,498.1 L443.3,482.4 L472.1,539.4 L431.5,539.4 L431.5,557.4 L422.5,557.4 L422.5,539.4 L381.9,539.4 L410.7,482.4 L388.2,498.1 L413.3,441.0 L394.5,456.7 L416.0,399.7 L400.8,415.4 L418.6,358.3 L407.1,374.0Z" fill="#1a2a24"/><path d="M433.2,394.0 L445.9,424.2 L438.5,412.7 L449.9,454.4 L440.2,442.9 L454.0,484.6 L441.9,473.1 L458.0,514.7 L443.6,503.3 L462.0,544.9 L436.1,544.9 L436.1,558.1 L430.3,558.1 L430.3,544.9 L404.4,544.9 L422.8,503.3 L408.4,514.7 L424.5,473.1 L412.4,484.6 L426.2,442.9 L416.5,454.4 L427.9,412.7 L420.5,424.2Z" fill="#1a2a24"/><path d="M475.3,343.0 L492.7,383.2 L482.6,367.9 L498.2,423.4 L484.9,408.1 L503.7,463.6 L487.2,448.3 L509.2,503.8 L489.6,488.5 L514.7,544.0 L479.3,544.0 L479.3,561.5 L471.4,561.5 L471.4,544.0 L435.9,544.0 L461.1,488.5 L441.5,503.8 L463.4,448.3 L447.0,463.6 L465.7,408.1 L452.5,423.4 L468.0,367.9 L458.0,383.2Z" fill="#1a2a24"/><path d="M523.9,383.5 L539.0,416.6 L530.2,404.0 L543.8,449.7 L532.3,437.1 L548.6,482.9 L534.3,470.3 L553.5,516.0 L536.3,503.4 L558.3,549.2 L527.3,549.2 L527.3,563.6 L520.4,563.6 L520.4,549.2 L489.5,549.2 L511.5,503.4 L494.3,516.0 L513.5,470.3 L499.1,482.9 L515.5,437.1 L503.9,449.7 L517.5,404.0 L508.7,416.6Z" fill="#1a2a24"/><path d="M544.1,407.7 L557.2,436.4 L549.6,425.5 L561.4,465.2 L551.4,454.2 L565.6,493.9 L553.1,483.0 L569.8,522.6 L554.9,511.7 L574.0,551.3 L547.1,551.3 L547.1,563.8 L541.1,563.8 L541.1,551.3 L514.2,551.3 L533.3,511.7 L518.4,522.6 L535.0,483.0 L522.6,493.9 L536.8,454.2 L526.7,465.2 L538.6,425.5 L530.9,436.4Z" fill="#1a2a24"/><path d="M549.3,422.8 L560.0,448.7 L553.8,438.9 L563.4,474.7 L555.2,464.8 L566.8,500.6 L556.7,490.8 L570.2,526.6 L558.1,516.7 L573.6,552.5 L551.7,552.5 L551.7,563.8 L546.9,563.8 L546.9,552.5 L525.0,552.5 L540.5,516.7 L528.4,526.6 L542.0,490.8 L531.8,500.6 L543.4,464.8 L535.2,474.7 L544.8,438.9 L538.6,448.7Z" fill="#1a2a24"/><path d="M571.3,384.8 L588.4,417.7 L578.5,405.2 L593.9,450.6 L580.8,438.1 L599.3,483.5 L583.0,471.0 L604.8,516.4 L585.3,503.9 L610.2,549.3 L575.2,549.3 L575.2,563.7 L567.4,563.7 L567.4,549.3 L532.3,549.3 L557.2,503.9 L537.8,516.4 L559.5,471.0 L543.2,483.5 L561.8,438.1 L548.7,450.6 L564.1,405.2 L554.1,417.7Z" fill="#1a2a24"/><path d="M576.5,372.4 L591.9,407.6 L583.0,394.2 L596.7,442.7 L585.0,429.4 L601.6,477.9 L587.1,464.5 L606.5,513.1 L589.1,499.7 L611.3,548.3 L580.0,548.3 L580.0,563.6 L573.1,563.6 L573.1,548.3 L541.7,548.3 L564.0,499.7 L546.6,513.1 L566.0,464.5 L551.5,477.9 L568.1,429.4 L556.3,442.7 L570.1,394.2 L561.2,407.6Z" fill="#1a2a24"/><path d="M580.3,367.2 L595.3,403.3 L586.6,389.6 L600.0,439.4 L588.6,425.7 L604.8,475.6 L590.6,461.8 L609.5,511.7 L592.6,497.9 L614.3,547.8 L583.7,547.8 L583.7,563.5 L576.9,563.5 L576.9,547.8 L546.3,547.8 L568.0,497.9 L551.1,511.7 L570.0,461.8 L555.8,475.6 L572.0,425.7 L560.6,439.4 L574.0,389.6 L565.4,403.3Z" fill="#1a2a24"/><path d="M593.3,398.0 L609.2,428.4 L600.0,416.8 L614.3,458.8 L602.1,447.2 L619.4,489.2 L604.2,477.6 L624.5,519.6 L606.4,508.0 L629.5,550.0 L596.9,550.0 L596.9,563.2 L589.6,563.2 L589.6,550.0 L557.0,550.0 L580.1,508.0 L562.0,519.6 L582.3,477.6 L567.1,489.2 L584.4,447.2 L572.2,458.8 L586.5,416.8 L577.3,428.4Z" fill="#1a2a24"/><path d="M594.1,341.9 L613.3,382.6 L602.2,367.1 L619.4,423.3 L604.7,407.8 L625.6,464.0 L607.3,448.5 L631.7,504.8 L609.9,489.3 L637.8,545.5 L598.4,545.5 L598.4,563.2 L589.7,563.2 L589.7,545.5 L550.3,545.5 L578.3,489.3 L556.5,504.8 L580.8,448.5 L562.6,464.0 L583.4,407.8 L568.7,423.3 L586.0,367.1 L574.8,382.6Z" fill="#1a2a24"/><path d="M595.2,350.0 L613.9,389.2 L603.0,374.3 L619.9,428.5 L605.5,413.5 L625.8,467.7 L608.0,452.8 L631.8,506.9 L610.6,492.0 L637.8,546.1 L599.4,546.1 L599.4,563.1 L590.9,563.1 L590.9,546.1 L552.6,546.1 L579.8,492.0 L558.5,506.9 L582.3,452.8 L564.5,467.7 L584.8,413.5 L570.5,428.5 L587.3,374.3 L576.4,389.2Z" fill="#1a2a24"/><path d="M619.1,384.8 L635.2,417.5 L625.9,405.0 L640.3,450.2 L628.0,437.7 L645.4,482.8 L630.1,470.4 L650.5,515.5 L632.3,503.1 L655.6,548.2 L622.8,548.2 L622.8,562.4 L615.5,562.4 L615.5,548.2 L582.7,548.2 L606.0,503.1 L587.8,515.5 L608.1,470.4 L592.9,482.8 L610.2,437.7 L598.0,450.2 L612.4,405.0 L603.1,417.5Z" fill="#1a2a24"/><rect y="600" width="600" height="150" fill="#16241a"/><path d="M23.2,644 C29.9,565.2 18.7,512.8 35.5,455.0 L56.7,455.0 C74.5,525.9 58.9,578.4 71.2,644Z" fill="#241a12"/><path d="M45.5,461.0 Q17.2,423.5 -49.0,392.0" stroke="#241a12" stroke-width="12.3" fill="none" stroke-linecap="round"/><path d="M45.5,461.0 Q72.0,419.6 133.7,384.1" stroke="#241a12" stroke-width="12.3" fill="none" stroke-linecap="round"/><path d="M45.5,461.0 Q47.4,410.4 51.8,365.8" stroke="#241a12" stroke-width="12.3" fill="none" stroke-linecap="round"/><path d="M45.5,461.0 Q32.3,439.2 1.4,423.5" stroke="#241a12" stroke-width="12.3" fill="none" stroke-linecap="round"/><path d="M45.5,461.0 Q60.6,436.6 95.9,418.2" stroke="#241a12" stroke-width="12.3" fill="none" stroke-linecap="round"/><circle cx="22.7" cy="353.1" r="32.3" fill="#2b3a22"/><circle cx="72.3" cy="440.6" r="30.0" fill="#2b3a22"/><circle cx="56.9" cy="386.4" r="51.0" fill="#2b3a22"/><circle cx="-48.1" cy="421.4" r="52.6" fill="#2b3a22"/><circle cx="64.7" cy="404.3" r="40.1" fill="#34472a"/><circle cx="21.4" cy="375.0" r="52.8" fill="#223019"/><circle cx="52.0" cy="351.6" r="31.7" fill="#34472a"/><circle cx="53.9" cy="401.4" r="44.1" fill="#223019"/><circle cx="129.6" cy="367.9" r="35.7" fill="#223019"/><circle cx="55.7" cy="405.0" r="44.5" fill="#2b3a22"/><circle cx="93.9" cy="348.1" r="49.4" fill="#34472a"/><circle cx="16.2" cy="396.2" r="32.7" fill="#223019"/><circle cx="27.6" cy="402.8" r="31.3" fill="#34472a"/><circle cx="68.0" cy="437.1" r="47.5" fill="#34472a"/><circle cx="-70.0" cy="400.4" r="47.0" fill="#223019"/><circle cx="48.3" cy="397.6" r="31.2" fill="#34472a"/><circle cx="-1.0" cy="371.7" r="37.6" fill="#34472a"/><circle cx="0.8" cy="418.7" r="48.7" fill="#34472a"/><circle cx="58.7" cy="358.1" r="48.5" fill="#34472a"/><circle cx="65.8" cy="391.8" r="37.1" fill="#2b3a22"/><circle cx="101.7" cy="371.7" r="38.8" fill="#2b3a22"/><circle cx="157.0" cy="416.5" r="45.6" fill="#34472a"/><circle cx="-19.3" cy="394.1" r="38.0" fill="#34472a"/><circle cx="62.7" cy="388.0" r="37.1" fill="#2b3a22"/><circle cx="-8.7" cy="449.5" r="47.8" fill="#223019"/><circle cx="80.5" cy="350.5" r="51.0" fill="#2b3a22"/><circle cx="28.2" cy="378.8" r="43.7" fill="#34472a"/><circle cx="40.6" cy="425.5" r="46.9" fill="#34472a"/><circle cx="46.2" cy="402.1" r="50.6" fill="#34472a"/><circle cx="37.8" cy="403.5" r="47.5" fill="#2b3a22"/><circle cx="-57.0" cy="392.5" r="33.1" fill="#34472a"/><circle cx="109.3" cy="439.7" r="30.6" fill="#2b3a22"/><circle cx="148.0" cy="420.7" r="41.8" fill="#223019"/><circle cx="24.3" cy="403.3" r="36.1" fill="#34472a"/><circle cx="62.3" cy="409.2" r="31.3" fill="#223019"/><circle cx="52.0" cy="366.5" r="40.9" fill="#223019"/><circle cx="37.1" cy="387.7" r="44.2" fill="#34472a"/><circle cx="39.1" cy="374.4" r="24.2" fill="#4b5f34" fill-opacity=".35"/><circle cx="82.2" cy="365.6" r="14.5" fill="#4b5f34" fill-opacity=".35"/><circle cx="-14.5" cy="393.9" r="14.9" fill="#4b5f34" fill-opacity=".35"/><circle cx="36.5" cy="376.1" r="24.7" fill="#4b5f34" fill-opacity=".35"/><circle cx="107.5" cy="385.1" r="14.3" fill="#4b5f34" fill-opacity=".35"/><circle cx="-43.4" cy="386.7" r="20.6" fill="#4b5f34" fill-opacity=".35"/><circle cx="73.7" cy="357.1" r="24.2" fill="#4b5f34" fill-opacity=".35"/><circle cx="40.9" cy="381.6" r="17.3" fill="#4b5f34" fill-opacity=".35"/><circle cx="76.4" cy="361.3" r="20.0" fill="#4b5f34" fill-opacity=".35"/><circle cx="102.2" cy="401.7" r="23.6" fill="#4b5f34" fill-opacity=".35"/><circle cx="127.1" cy="381.9" r="14.7" fill="#4b5f34" fill-opacity=".35"/><circle cx="-22.7" cy="377.1" r="12.8" fill="#4b5f34" fill-opacity=".35"/><circle cx="35.1" cy="436.8" r="3.6" fill="#d1a445"/><circle cx="49.2" cy="429.9" r="3.0" fill="#c05a30"/><circle cx="-54.4" cy="384.1" r="3.0" fill="#d1a445"/><circle cx="-49.6" cy="378.6" r="3.2" fill="#c9892f"/><circle cx="74.7" cy="347.7" r="3.9" fill="#c05a30"/><circle cx="31.4" cy="416.0" r="3.3" fill="#c05a30"/><circle cx="7.3" cy="428.6" r="3.5" fill="#c9892f"/><circle cx="80.2" cy="406.6" r="2.6" fill="#9c3428"/><circle cx="-0.9" cy="374.3" r="2.7" fill="#9c3428"/><circle cx="147.5" cy="395.4" r="3.8" fill="#d1a445"/><circle cx="53.1" cy="420.3" r="2.8" fill="#d1a445"/><circle cx="96.2" cy="378.3" r="3.6" fill="#9c3428"/><circle cx="82.8" cy="433.2" r="3.3" fill="#c9892f"/><circle cx="29.7" cy="441.4" r="3.2" fill="#b5432e"/><circle cx="67.0" cy="393.0" r="3.4" fill="#b5432e"/><circle cx="47.1" cy="451.8" r="4.1" fill="#c05a30"/><circle cx="89.8" cy="431.5" r="3.0" fill="#d1a445"/><path d="M550.0,648 C556.1,575.5 545.9,527.2 557.3,474.1 L576.8,474.1 C597.2,539.3 582.8,587.6 594.1,648Z" fill="#241a12"/><path d="M566.5,480.1 Q540.5,445.1 479.9,416.2" stroke="#241a12" stroke-width="11.3" fill="none" stroke-linecap="round"/><path d="M566.5,480.1 Q590.8,441.5 647.4,408.9" stroke="#241a12" stroke-width="11.3" fill="none" stroke-linecap="round"/><path d="M566.5,480.1 Q568.2,433.1 572.3,392.0" stroke="#241a12" stroke-width="11.3" fill="none" stroke-linecap="round"/><path d="M566.5,480.1 Q554.4,459.6 526.1,445.1" stroke="#241a12" stroke-width="11.3" fill="none" stroke-linecap="round"/><path d="M566.5,480.1 Q580.4,457.2 612.7,440.3" stroke="#241a12" stroke-width="11.3" fill="none" stroke-linecap="round"/><circle cx="496.0" cy="461.7" r="44.9" fill="#2b3a22"/><circle cx="595.9" cy="418.7" r="36.3" fill="#34472a"/><circle cx="625.1" cy="432.6" r="27.6" fill="#2b3a22"/><circle cx="497.7" cy="407.3" r="30.0" fill="#223019"/><circle cx="527.5" cy="472.5" r="38.1" fill="#223019"/><circle cx="555.7" cy="426.9" r="47.9" fill="#223019"/><circle cx="538.6" cy="395.9" r="33.6" fill="#34472a"/><circle cx="572.9" cy="434.1" r="36.1" fill="#2b3a22"/><circle cx="560.4" cy="428.0" r="40.1" fill="#223019"/><circle cx="569.5" cy="424.2" r="29.4" fill="#223019"/><circle cx="574.7" cy="448.9" r="38.3" fill="#34472a"/><circle cx="588.4" cy="393.9" r="40.5" fill="#34472a"/><circle cx="647.6" cy="441.8" r="31.9" fill="#2b3a22"/><circle cx="654.4" cy="422.1" r="34.1" fill="#34472a"/><circle cx="665.5" cy="431.8" r="35.3" fill="#223019"/><circle cx="562.5" cy="428.7" r="28.4" fill="#2b3a22"/><circle cx="568.5" cy="436.2" r="40.1" fill="#2b3a22"/><circle cx="569.5" cy="433.8" r="47.4" fill="#34472a"/><circle cx="582.9" cy="459.8" r="46.1" fill="#223019"/><circle cx="527.7" cy="422.9" r="33.8" fill="#34472a"/><circle cx="496.7" cy="435.8" r="35.8" fill="#34472a"/><circle cx="468.0" cy="425.1" r="45.5" fill="#34472a"/><circle cx="492.2" cy="448.0" r="41.8" fill="#223019"/><circle cx="602.8" cy="378.9" r="38.6" fill="#2b3a22"/><circle cx="565.9" cy="411.5" r="28.0" fill="#34472a"/><circle cx="563.6" cy="424.8" r="37.4" fill="#2b3a22"/><circle cx="565.7" cy="424.1" r="46.3" fill="#2b3a22"/><circle cx="560.2" cy="423.0" r="34.9" fill="#223019"/><circle cx="561.5" cy="417.6" r="33.9" fill="#34472a"/><circle cx="666.9" cy="413.3" r="27.6" fill="#223019"/><circle cx="578.6" cy="455.8" r="45.3" fill="#2b3a22"/><circle cx="625.2" cy="440.9" r="25.8" fill="#223019"/><circle cx="609.2" cy="464.1" r="31.5" fill="#223019"/><circle cx="577.4" cy="429.6" r="26.1" fill="#223019"/><circle cx="545.5" cy="469.2" r="32.0" fill="#34472a"/><circle cx="533.9" cy="422.7" r="21.5" fill="#4b5f34" fill-opacity=".35"/><circle cx="524.2" cy="422.9" r="22.2" fill="#4b5f34" fill-opacity=".35"/><circle cx="506.6" cy="418.6" r="13.2" fill="#4b5f34" fill-opacity=".35"/><circle cx="649.5" cy="423.1" r="14.3" fill="#4b5f34" fill-opacity=".35"/><circle cx="554.8" cy="385.1" r="12.1" fill="#4b5f34" fill-opacity=".35"/><circle cx="559.5" cy="402.7" r="22.5" fill="#4b5f34" fill-opacity=".35"/><circle cx="522.7" cy="413.1" r="14.3" fill="#4b5f34" fill-opacity=".35"/><circle cx="604.6" cy="385.1" r="21.1" fill="#4b5f34" fill-opacity=".35"/><circle cx="558.7" cy="413.4" r="22.6" fill="#4b5f34" fill-opacity=".35"/><circle cx="541.0" cy="419.3" r="21.4" fill="#4b5f34" fill-opacity=".35"/><circle cx="582.9" cy="404.8" r="17.8" fill="#4b5f34" fill-opacity=".35"/><circle cx="619.6" cy="389.9" r="2.7" fill="#9c3428"/><circle cx="594.2" cy="424.3" r="4.0" fill="#d1a445"/><circle cx="642.4" cy="434.3" r="3.8" fill="#c05a30"/><circle cx="659.2" cy="445.0" r="2.7" fill="#b5432e"/><circle cx="574.0" cy="438.5" r="4.1" fill="#c05a30"/><circle cx="584.5" cy="376.2" r="3.8" fill="#c9892f"/><circle cx="529.2" cy="443.4" r="2.8" fill="#b5432e"/><circle cx="532.6" cy="475.0" r="3.5" fill="#d1a445"/><circle cx="573.9" cy="439.0" r="3.2" fill="#c05a30"/><circle cx="632.9" cy="441.7" r="3.8" fill="#c05a30"/><circle cx="601.6" cy="467.5" r="2.8" fill="#c9892f"/><circle cx="548.5" cy="475.1" r="3.7" fill="#c9892f"/><circle cx="649.9" cy="445.6" r="3.3" fill="#c9892f"/><circle cx="548.4" cy="449.8" r="4.2" fill="#c9892f"/><circle cx="546.8" cy="431.5" r="3.4" fill="#c9892f"/><circle cx="308.0" cy="525.5" r="315.0" fill="url(#d1)"/><g transform="translate(140.0,620.0) scale(1.05)"><ellipse cx="160" cy="4" rx="200" ry="14" fill="#000" fill-opacity=".5"/><rect x="0" y="-46" width="320" height="46" fill="#4f4b41"/><rect x="0.0" y="-46.0" width="29.2" height="14.3" rx="3" fill="#6b6558" stroke="#2d2a24" stroke-width=".8"/><rect x="20.7" y="-46.0" width="39.9" height="14.3" rx="3" fill="#4f4b41" stroke="#2d2a24" stroke-width=".8"/><rect x="62.1" y="-46.0" width="27.4" height="14.3" rx="3" fill="#6b6558" stroke="#2d2a24" stroke-width=".8"/><rect x="91.0" y="-46.0" width="24.4" height="14.3" rx="3" fill="#67614f" stroke="#2d2a24" stroke-width=".8"/><rect x="116.9" y="-46.0" width="44.2" height="14.3" rx="3" fill="#6b6558" stroke="#2d2a24" stroke-width=".8"/><rect x="162.6" y="-46.0" width="28.9" height="14.3" rx="3" fill="#67614f" stroke="#2d2a24" stroke-width=".8"/><rect x="193.0" y="-46.0" width="31.9" height="14.3" rx="3" fill="#5a5549" stroke="#2d2a24" stroke-width=".8"/><rect x="226.4" y="-46.0" width="42.2" height="14.3" rx="3" fill="#77705f" stroke="#2d2a24" stroke-width=".8"/><rect x="270.1" y="-46.0" width="28.7" height="14.3" rx="3" fill="#6b6558" stroke="#2d2a24" stroke-width=".8"/><rect x="300.3" y="-46.0" width="19.7" height="14.3" rx="3" fill="#77705f" stroke="#2d2a24" stroke-width=".8"/><rect x="4.0" y="-30.7" width="41.6" height="14.3" rx="3" fill="#5a5549" stroke="#2d2a24" stroke-width=".8"/><rect x="47.1" y="-30.7" width="27.6" height="14.3" rx="3" fill="#77705f" stroke="#2d2a24" stroke-width=".8"/><rect x="76.2" y="-30.7" width="37.8" height="14.3" rx="3" fill="#77705f" stroke="#2d2a24" stroke-width=".8"/><rect x="115.5" y="-30.7" width="25.9" height="14.3" rx="3" fill="#67614f" stroke="#2d2a24" stroke-width=".8"/><rect x="142.9" y="-30.7" width="31.4" height="14.3" rx="3" fill="#4f4b41" stroke="#2d2a24" stroke-width=".8"/><rect x="175.9" y="-30.7" width="35.1" height="14.3" rx="3" fill="#5a5549" stroke="#2d2a24" stroke-width=".8"/><rect x="212.5" y="-30.7" width="29.4" height="14.3" rx="3" fill="#77705f" stroke="#2d2a24" stroke-width=".8"/><rect x="243.4" y="-30.7" width="26.0" height="14.3" rx="3" fill="#67614f" stroke="#2d2a24" stroke-width=".8"/><rect x="270.9" y="-30.7" width="42.5" height="14.3" rx="3" fill="#6b6558" stroke="#2d2a24" stroke-width=".8"/><rect x="314.9" y="-30.7" width="5.1" height="14.3" rx="3" fill="#67614f" stroke="#2d2a24" stroke-width=".8"/><rect x="0.0" y="-15.4" width="39.5" height="14.3" rx="3" fill="#77705f" stroke="#2d2a24" stroke-width=".8"/><rect x="31.0" y="-15.4" width="42.7" height="14.3" rx="3" fill="#67614f" stroke="#2d2a24" stroke-width=".8"/><rect x="75.2" y="-15.4" width="28.3" height="14.3" rx="3" fill="#4f4b41" stroke="#2d2a24" stroke-width=".8"/><rect x="105.0" y="-15.4" width="37.2" height="14.3" rx="3" fill="#4f4b41" stroke="#2d2a24" stroke-width=".8"/><rect x="143.6" y="-15.4" width="33.9" height="14.3" rx="3" fill="#5a5549" stroke="#2d2a24" stroke-width=".8"/><rect x="179.1" y="-15.4" width="30.7" height="14.3" rx="3" fill="#6b6558" stroke="#2d2a24" stroke-width=".8"/><rect x="211.3" y="-15.4" width="25.8" height="14.3" rx="3" fill="#4f4b41" stroke="#2d2a24" stroke-width=".8"/><rect x="238.6" y="-15.4" width="37.8" height="14.3" rx="3" fill="#77705f" stroke="#2d2a24" stroke-width=".8"/><rect x="277.8" y="-15.4" width="35.4" height="14.3" rx="3" fill="#4f4b41" stroke="#2d2a24" stroke-width=".8"/><rect x="314.8" y="-15.4" width="5.2" height="14.3" rx="3" fill="#5a5549" stroke="#2d2a24" stroke-width=".8"/><rect x="0" y="-118" width="10" height="72" fill="#5d4029"/><rect x="9.2" y="-118" width="0.9" height="72" fill="#1c120a" fill-opacity=".6"/><rect x="10" y="-118" width="10" height="72" fill="#6b4a31"/><rect x="19.2" y="-118" width="0.9" height="72" fill="#1c120a" fill-opacity=".6"/><rect x="20" y="-118" width="10" height="72" fill="#644430"/><rect x="29.2" y="-118" width="0.9" height="72" fill="#1c120a" fill-opacity=".6"/><rect x="30" y="-118" width="10" height="72" fill="#5d4029"/><rect x="39.2" y="-118" width="0.9" height="72" fill="#1c120a" fill-opacity=".6"/><rect x="40" y="-118" width="10" height="72" fill="#644430"/><rect x="49.2" y="-118" width="0.9" height="72" fill="#1c120a" fill-opacity=".6"/><rect x="50" y="-118" width="10" height="72" fill="#734f35"/><rect x="59.2" y="-118" width="0.9" height="72" fill="#1c120a" fill-opacity=".6"/><rect x="60" y="-118" width="10" height="72" fill="#5d4029"/><rect x="69.2" y="-118" width="0.9" height="72" fill="#1c120a" fill-opacity=".6"/><rect x="70" y="-118" width="10" height="72" fill="#734f35"/><rect x="79.2" y="-118" width="0.9" height="72" fill="#1c120a" fill-opacity=".6"/><rect x="80" y="-118" width="10" height="72" fill="#644430"/><rect x="89.2" y="-118" width="0.9" height="72" fill="#1c120a" fill-opacity=".6"/><rect x="90" y="-118" width="10" height="72" fill="#734f35"/><rect x="99.2" y="-118" width="0.9" height="72" fill="#1c120a" fill-opacity=".6"/><rect x="100" y="-118" width="10" height="72" fill="#5d4029"/><rect x="109.2" y="-118" width="0.9" height="72" fill="#1c120a" fill-opacity=".6"/><rect x="110" y="-118" width="10" height="72" fill="#734f35"/><rect x="119.2" y="-118" width="0.9" height="72" fill="#1c120a" fill-opacity=".6"/><rect x="120" y="-118" width="10" height="72" fill="#6b4a31"/><rect x="129.2" y="-118" width="0.9" height="72" fill="#1c120a" fill-opacity=".6"/><rect x="130" y="-118" width="10" height="72" fill="#6b4a31"/><rect x="139.2" y="-118" width="0.9" height="72" fill="#1c120a" fill-opacity=".6"/><rect x="140" y="-118" width="10" height="72" fill="#5d4029"/><rect x="149.2" y="-118" width="0.9" height="72" fill="#1c120a" fill-opacity=".6"/><rect x="150" y="-118" width="10" height="72" fill="#734f35"/><rect x="159.2" y="-118" width="0.9" height="72" fill="#1c120a" fill-opacity=".6"/><rect x="160" y="-118" width="10" height="72" fill="#5d4029"/><rect x="169.2" y="-118" width="0.9" height="72" fill="#1c120a" fill-opacity=".6"/><rect x="170" y="-118" width="10" height="72" fill="#6b4a31"/><rect x="179.2" y="-118" width="0.9" height="72" fill="#1c120a" fill-opacity=".6"/><rect x="180" y="-118" width="10" height="72" fill="#734f35"/><rect x="189.2" y="-118" width="0.9" height="72" fill="#1c120a" fill-opacity=".6"/><rect x="190" y="-118" width="10" height="72" fill="#5d4029"/><rect x="199.2" y="-118" width="0.9" height="72" fill="#1c120a" fill-opacity=".6"/><rect x="200" y="-118" width="10" height="72" fill="#734f35"/><rect x="209.2" y="-118" width="0.9" height="72" fill="#1c120a" fill-opacity=".6"/><rect x="210" y="-118" width="10" height="72" fill="#644430"/><rect x="219.2" y="-118" width="0.9" height="72" fill="#1c120a" fill-opacity=".6"/><rect x="220" y="-118" width="10" height="72" fill="#6b4a31"/><rect x="229.2" y="-118" width="0.9" height="72" fill="#1c120a" fill-opacity=".6"/><rect x="230" y="-118" width="10" height="72" fill="#6b4a31"/><rect x="239.2" y="-118" width="0.9" height="72" fill="#1c120a" fill-opacity=".6"/><rect x="240" y="-118" width="10" height="72" fill="#734f35"/><rect x="249.2" y="-118" width="0.9" height="72" fill="#1c120a" fill-opacity=".6"/><rect x="250" y="-118" width="10" height="72" fill="#6b4a31"/><rect x="259.2" y="-118" width="0.9" height="72" fill="#1c120a" fill-opacity=".6"/><rect x="260" y="-118" width="10" height="72" fill="#734f35"/><rect x="269.2" y="-118" width="0.9" height="72" fill="#1c120a" fill-opacity=".6"/><rect x="270" y="-118" width="10" height="72" fill="#734f35"/><rect x="279.2" y="-118" width="0.9" height="72" fill="#1c120a" fill-opacity=".6"/><rect x="280" y="-118" width="10" height="72" fill="#6b4a31"/><rect x="289.2" y="-118" width="0.9" height="72" fill="#1c120a" fill-opacity=".6"/><rect x="290" y="-118" width="10" height="72" fill="#734f35"/><rect x="299.2" y="-118" width="0.9" height="72" fill="#1c120a" fill-opacity=".6"/><rect x="300" y="-118" width="10" height="72" fill="#734f35"/><rect x="309.2" y="-118" width="0.9" height="72" fill="#1c120a" fill-opacity=".6"/><rect x="310" y="-118" width="10" height="72" fill="#734f35"/><rect x="319.2" y="-118" width="0.9" height="72" fill="#1c120a" fill-opacity=".6"/><rect x="0" y="-118" width="320" height="72" fill="#000" fill-opacity=".14"/><polygon points="-24,-112 34,-192 286,-192 344,-112" fill="#2c352a"/><path d="M-14.9,-124.5 L334.9,-124.5" stroke="#000" stroke-opacity=".28" stroke-width="1.4"/><path d="M-5.9,-137.0 L325.9,-137.0" stroke="#000" stroke-opacity=".28" stroke-width="1.4"/><path d="M3.2,-149.5 L316.8,-149.5" stroke="#000" stroke-opacity=".28" stroke-width="1.4"/><path d="M12.2,-162.0 L307.8,-162.0" stroke="#000" stroke-opacity=".28" stroke-width="1.4"/><path d="M21.3,-174.5 L298.7,-174.5" stroke="#000" stroke-opacity=".28" stroke-width="1.4"/><path d="M30.4,-187.0 L289.6,-187.0" stroke="#000" stroke-opacity=".28" stroke-width="1.4"/><ellipse cx="318.6" cy="-133.1" rx="13.2" ry="6.8" fill="#5b6d3c" fill-opacity="0.70"/><ellipse cx="268.8" cy="-169.7" rx="9.9" ry="4.8" fill="#5b6d3c" fill-opacity="0.50"/><ellipse cx="122.2" cy="-118.9" rx="12.0" ry="3.0" fill="#5b6d3c" fill-opacity="0.47"/><ellipse cx="51.0" cy="-132.4" rx="12.4" ry="4.2" fill="#5b6d3c" fill-opacity="0.49"/><ellipse cx="323.9" cy="-159.8" rx="10.1" ry="3.2" fill="#5b6d3c" fill-opacity="0.47"/><ellipse cx="50.7" cy="-140.6" rx="9.2" ry="3.2" fill="#5b6d3c" fill-opacity="0.65"/><ellipse cx="77.7" cy="-116.2" rx="8.8" ry="5.1" fill="#5b6d3c" fill-opacity="0.76"/><ellipse cx="131.5" cy="-116.9" rx="14.2" ry="4.0" fill="#5b6d3c" fill-opacity="0.61"/><ellipse cx="6.4" cy="-160.0" rx="10.7" ry="6.6" fill="#5b6d3c" fill-opacity="0.78"/><ellipse cx="161.5" cy="-189.6" rx="10.8" ry="4.0" fill="#5b6d3c" fill-opacity="0.53"/><ellipse cx="71.8" cy="-125.9" rx="9.1" ry="3.2" fill="#5b6d3c" fill-opacity="0.82"/><ellipse cx="184.0" cy="-116.7" rx="13.0" ry="6.6" fill="#5b6d3c" fill-opacity="0.71"/><ellipse cx="259.7" cy="-135.4" rx="14.4" ry="3.4" fill="#5b6d3c" fill-opacity="0.53"/><ellipse cx="287.6" cy="-123.6" rx="20.9" ry="4.3" fill="#5b6d3c" fill-opacity="0.71"/><ellipse cx="262.6" cy="-143.2" rx="19.2" ry="5.1" fill="#5b6d3c" fill-opacity="0.71"/><ellipse cx="224.5" cy="-171.6" rx="20.8" ry="6.8" fill="#5b6d3c" fill-opacity="0.48"/><ellipse cx="320.3" cy="-118.9" rx="17.0" ry="3.2" fill="#5b6d3c" fill-opacity="0.81"/><ellipse cx="36.9" cy="-118.4" rx="17.0" ry="3.2" fill="#5b6d3c" fill-opacity="0.52"/><ellipse cx="207.4" cy="-148.7" rx="18.2" ry="6.7" fill="#5b6d3c" fill-opacity="0.54"/><ellipse cx="-4.9" cy="-121.9" rx="7.2" ry="6.5" fill="#5b6d3c" fill-opacity="0.50"/><ellipse cx="266.1" cy="-132.5" rx="20.2" ry="5.2" fill="#5b6d3c" fill-opacity="0.80"/><ellipse cx="61.8" cy="-141.0" rx="12.0" ry="6.6" fill="#5b6d3c" fill-opacity="0.76"/><ellipse cx="152.4" cy="-152.0" rx="7.4" ry="3.1" fill="#5b6d3c" fill-opacity="0.69"/><ellipse cx="158.2" cy="-126.3" rx="16.1" ry="3.6" fill="#5b6d3c" fill-opacity="0.60"/><ellipse cx="251.9" cy="-152.3" rx="7.2" ry="6.4" fill="#5b6d3c" fill-opacity="0.78"/><ellipse cx="22.6" cy="-150.7" rx="12.7" ry="6.1" fill="#5b6d3c" fill-opacity="0.57"/><rect x="-26" y="-116" width="372" height="6" fill="#1c1510"/><polygon points="-24,-112 34,-192 40,-190 -14,-112" fill="#fff" fill-opacity=".05"/><rect x="234" y="-238" width="34" height="56" fill="#514c42"/><rect x="230" y="-242" width="42" height="9" fill="#3a362f"/><rect x="236" y="-232" width="13.9" height="8" rx="2" fill="#6a6558" fill-opacity=".6"/><rect x="237" y="-220" width="15.9" height="8" rx="2" fill="#6a6558" fill-opacity=".6"/><rect x="238" y="-208" width="19.7" height="8" rx="2" fill="#6a6558" fill-opacity=".6"/><rect x="239" y="-196" width="12.8" height="8" rx="2" fill="#6a6558" fill-opacity=".6"/><path d="M251,-246 C232,-278 272,-300 250,-336 C238,-358 262,-374 254,-406" fill="none" stroke="#e6dcc6" stroke-opacity=".22" stroke-width="12" stroke-linecap="round"/><rect x="141" y="-208" width="38" height="34" fill="#5d4029"/><polygon points="134,-206 160,-232 186,-206" fill="#221a12"/><path d="M148,-174 L148,-192.0 A12.0,12.0 0 0 1 172,-192.0 L172,-174Z" fill="url(#d2)"/><circle cx="160.0" cy="-192.0" r="12.0" fill="url(#d3)"/><rect x="158.0" y="-186.0" width="4" height="9.0" rx="1.5" fill="#efe3c6"/><rect x="160.5" y="-186.0" width="1.5" height="9.0" fill="#000" fill-opacity=".12"/><rect x="159.4" y="-190.0" width="1.2" height="4" fill="#2a1c10"/><path d="M160.0,-203.0 C162.4,-196.0 162.0,-189.0 160.0,-188.0 C158.0,-189.0 157.6,-196.0 160.0,-203.0Z" fill="#ffd98a"/><path d="M160.0,-197.0 C161.0,-194.0 160.8,-190.0 160.0,-189.0 C159.2,-190.0 159.0,-194.0 160.0,-197.0Z" fill="#fff3cf"/><path d="M160.0,-202 V-174 M148,-189.0 H172" stroke="#1c120a" stroke-width="1.4"/><path d="M148,-174 L148,-192.0 A12.0,12.0 0 0 1 172,-192.0 L172,-174Z" fill="none" stroke="#1c120a" stroke-width="2.0"/><path d="M148,-192.0 Q152.8,-189.0 149.44,-174 L148,-174Z" fill="#5a2323"/><path d="M172,-192.0 Q167.2,-189.0 170.56,-174 L172,-174Z" fill="#5a2323"/><rect x="143" y="-174" width="34" height="5" fill="#8b8576"/><circle cx="58.0" cy="-74.0" r="78.0" fill="url(#d4)"/><circle cx="262.0" cy="-74.0" r="78.0" fill="url(#d4)"/><path d="M36,-42 L36,-81.0 A23.0,23.0 0 0 1 82,-81.0 L82,-42Z" fill="url(#d2)"/><circle cx="48.9" cy="-71.5" r="23.0" fill="url(#d3)"/><rect x="46.1" y="-65.5" width="5.52" height="20.46" rx="1.5" fill="#efe3c6"/><rect x="49.5" y="-65.5" width="2.1" height="20.46" fill="#000" fill-opacity=".12"/><rect x="48.3" y="-69.5" width="1.2" height="4" fill="#2a1c10"/><path d="M48.9,-82.5 C52.2,-75.5 51.6,-68.5 48.9,-67.5 C46.1,-68.5 45.6,-75.5 48.9,-82.5Z" fill="#ffd98a"/><path d="M48.9,-76.5 C50.3,-73.5 50.0,-69.5 48.9,-68.5 C47.8,-69.5 47.5,-73.5 48.9,-76.5Z" fill="#fff3cf"/><circle cx="59.0" cy="-78.9" r="23.0" fill="url(#d3)"/><rect x="56.2" y="-72.9" width="5.52" height="27.9" rx="1.5" fill="#efe3c6"/><rect x="59.7" y="-72.9" width="2.1" height="27.9" fill="#000" fill-opacity=".12"/><rect x="58.4" y="-76.9" width="1.2" height="4" fill="#2a1c10"/><path d="M59.0,-89.9 C62.3,-82.9 61.8,-75.9 59.0,-74.9 C56.2,-75.9 55.7,-82.9 59.0,-89.9Z" fill="#ffd98a"/><path d="M59.0,-83.9 C60.4,-80.9 60.1,-76.9 59.0,-75.9 C57.9,-76.9 57.6,-80.9 59.0,-83.9Z" fill="#fff3cf"/><circle cx="70.0" cy="-67.7" r="23.0" fill="url(#d3)"/><rect x="67.3" y="-61.7" width="5.52" height="16.74" rx="1.5" fill="#efe3c6"/><rect x="70.7" y="-61.7" width="2.1" height="16.74" fill="#000" fill-opacity=".12"/><rect x="69.4" y="-65.7" width="1.2" height="4" fill="#2a1c10"/><path d="M70.0,-78.7 C73.4,-71.7 72.8,-64.7 70.0,-63.7 C67.3,-64.7 66.7,-71.7 70.0,-78.7Z" fill="#ffd98a"/><path d="M70.0,-72.7 C71.4,-69.7 71.1,-65.7 70.0,-64.7 C68.9,-65.7 68.7,-69.7 70.0,-72.7Z" fill="#fff3cf"/><path d="M59.0,-102 V-42 M36,-73.0 H82" stroke="#2b1c12" stroke-width="2.3"/><path d="M36,-42 L36,-81.0 A23.0,23.0 0 0 1 82,-81.0 L82,-42Z" fill="none" stroke="#2b1c12" stroke-width="3.2"/><path d="M36,-81.0 Q45.2,-73.0 38.76,-42 L36,-42Z" fill="#5a2323"/><path d="M82,-81.0 Q72.80000000000001,-73.0 79.24,-42 L82,-42Z" fill="#5a2323"/><rect x="31" y="-42" width="56" height="5" fill="#8b8576"/><path d="M238,-42 L238,-81.0 A23.0,23.0 0 0 1 284,-81.0 L284,-42Z" fill="url(#d2)"/><circle cx="252.7" cy="-75.2" r="23.0" fill="url(#d3)"/><rect x="250.0" y="-69.2" width="5.52" height="24.18" rx="1.5" fill="#efe3c6"/><rect x="253.4" y="-69.2" width="2.1" height="24.18" fill="#000" fill-opacity=".12"/><rect x="252.1" y="-73.2" width="1.2" height="4" fill="#2a1c10"/><path d="M252.7,-86.2 C256.0,-79.2 255.5,-72.2 252.7,-71.2 C250.0,-72.2 249.4,-79.2 252.7,-86.2Z" fill="#ffd98a"/><path d="M252.7,-80.2 C254.1,-77.2 253.8,-73.2 252.7,-72.2 C251.6,-73.2 251.3,-77.2 252.7,-80.2Z" fill="#fff3cf"/><circle cx="270.2" cy="-69.6" r="23.0" fill="url(#d3)"/><rect x="267.4" y="-63.6" width="5.52" height="18.599999999999998" rx="1.5" fill="#efe3c6"/><rect x="270.9" y="-63.6" width="2.1" height="18.599999999999998" fill="#000" fill-opacity=".12"/><rect x="269.6" y="-67.6" width="1.2" height="4" fill="#2a1c10"/><path d="M270.2,-80.6 C273.5,-73.6 273.0,-66.6 270.2,-65.6 C267.4,-66.6 266.9,-73.6 270.2,-80.6Z" fill="#ffd98a"/><path d="M270.2,-74.6 C271.6,-71.6 271.3,-67.6 270.2,-66.6 C269.1,-67.6 268.8,-71.6 270.2,-74.6Z" fill="#fff3cf"/><path d="M261.0,-102 V-42 M238,-73.0 H284" stroke="#2b1c12" stroke-width="2.3"/><path d="M238,-42 L238,-81.0 A23.0,23.0 0 0 1 284,-81.0 L284,-42Z" fill="none" stroke="#2b1c12" stroke-width="3.2"/><path d="M238,-81.0 Q247.2,-73.0 240.76,-42 L238,-42Z" fill="#5a2323"/><path d="M284,-81.0 Q274.8,-73.0 281.24,-42 L284,-42Z" fill="#5a2323"/><rect x="233" y="-42" width="56" height="5" fill="#8b8576"/><path d="M134,0 L134,-58 A26,26 0 0 1 186,-58 L186,0Z" fill="#3a2517"/><path d="M144.4,-84 V0" stroke="#160d07" stroke-opacity=".7" stroke-width="1.2"/><path d="M154.8,-84 V0" stroke="#160d07" stroke-opacity=".7" stroke-width="1.2"/><path d="M165.2,-84 V0" stroke="#160d07" stroke-opacity=".7" stroke-width="1.2"/><path d="M175.6,-84 V0" stroke="#160d07" stroke-opacity=".7" stroke-width="1.2"/><path d="M134,0 L134,-58 A26,26 0 0 1 186,-58 L186,0Z" fill="none" stroke="#1c120a" stroke-width="3"/><path d="M134,-30 h52 M134,-56 h52" stroke="#1c120a" stroke-width="2.4"/><circle cx="176" cy="-34" r="2.6" fill="#b58a3c"/><rect x="122" y="-4" width="76" height="6" rx="2" fill="#8b8576"/><path d="M150,-56 L150,-68.0 A10.0,10.0 0 0 1 170,-68.0 L170,-56Z" fill="url(#d2)"/><circle cx="160.0" cy="-70.3" r="10.0" fill="url(#d3)"/><rect x="158.0" y="-64.3" width="4" height="5.28" rx="1.5" fill="#efe3c6"/><rect x="160.5" y="-64.3" width="1.5" height="5.28" fill="#000" fill-opacity=".12"/><rect x="159.4" y="-68.3" width="1.2" height="4" fill="#2a1c10"/><path d="M160.0,-81.3 C162.4,-74.3 162.0,-67.3 160.0,-66.3 C158.0,-67.3 157.6,-74.3 160.0,-81.3Z" fill="#ffd98a"/><path d="M160.0,-75.3 C161.0,-72.3 160.8,-68.3 160.0,-67.3 C159.2,-68.3 159.0,-72.3 160.0,-75.3Z" fill="#fff3cf"/><path d="M160.0,-76 V-56 M150,-67.0 H170" stroke="#1c120a" stroke-width="1.4"/><path d="M150,-56 L150,-68.0 A10.0,10.0 0 0 1 170,-68.0 L170,-56Z" fill="none" stroke="#1c120a" stroke-width="2.0"/><path d="M150,-68.0 Q154.0,-67.0 151.2,-56 L150,-56Z" fill="#000"/><path d="M170,-68.0 Q166.0,-67.0 168.8,-56 L170,-56Z" fill="#000"/><rect x="145" y="-56" width="30" height="5" fill="#8b8576"/><circle cx="112.0" cy="-78.0" r="42.0" fill="url(#d3)"/><path d="M112,-96 v6" stroke="#1c120a" stroke-width="1.6"/><rect x="106" y="-90" width="12" height="16" rx="2" fill="#f6c56f" stroke="#1c120a" stroke-width="2"/><circle cx="-0.1" cy="-49.5" r="8.4" fill="#27391f"/><circle cx="30.0" cy="-74.1" r="7.6" fill="#3d5730"/><circle cx="-1.7" cy="-18.2" r="5.0" fill="#3d5730"/><circle cx="27.6" cy="-66.6" r="4.6" fill="#27391f"/><circle cx="1.7" cy="-19.1" r="4.9" fill="#2f4526"/><circle cx="7.1" cy="-20.8" r="5.3" fill="#2f4526"/><circle cx="20.2" cy="-123.3" r="5.6" fill="#27391f"/><circle cx="-0.2" cy="-29.7" r="7.0" fill="#27391f"/><circle cx="-1.4" cy="-94.5" r="8.2" fill="#3d5730"/><circle cx="3.8" cy="-102.4" r="8.3" fill="#2f4526"/><circle cx="19.0" cy="-50.9" r="5.6" fill="#3d5730"/><circle cx="22.6" cy="-55.8" r="8.7" fill="#27391f"/><circle cx="22.8" cy="-50.4" r="6.2" fill="#2f4526"/><circle cx="4.6" cy="-52.3" r="8.9" fill="#3d5730"/><circle cx="0.5" cy="-114.1" r="4.7" fill="#27391f"/><circle cx="2.0" cy="-15.8" r="5.9" fill="#27391f"/><circle cx="23.0" cy="-43.0" r="8.4" fill="#2f4526"/><circle cx="9.7" cy="-11.7" r="4.9" fill="#27391f"/><circle cx="8.6" cy="-103.0" r="8.4" fill="#27391f"/><circle cx="-3.3" cy="-10.1" r="8.1" fill="#3d5730"/><circle cx="23.4" cy="-9.6" r="4.8" fill="#27391f"/><circle cx="29.6" cy="-44.7" r="9.0" fill="#2f4526"/><circle cx="21.8" cy="-7.8" r="4.6" fill="#27391f"/><circle cx="12.3" cy="-17.6" r="5.1" fill="#27391f"/><circle cx="6.3" cy="-12.7" r="6.0" fill="#27391f"/><circle cx="4.1" cy="-65.2" r="5.1" fill="#3d5730"/><circle cx="3.8" cy="-84.8" r="7.1" fill="#3d5730"/><circle cx="26.6" cy="-76.0" r="6.0" fill="#3d5730"/><circle cx="5.6" cy="-74.6" r="4.1" fill="#2f4526"/><circle cx="26.5" cy="-69.0" r="6.8" fill="#3d5730"/><circle cx="280.0" cy="-8" r="6.4" fill="#6a4a2f" stroke="#2f1f12" stroke-width="1.4"/><circle cx="280.0" cy="-8" r="2.6" fill="none" stroke="#3b2716" stroke-width=".8"/><circle cx="293.0" cy="-8" r="6.4" fill="#6a4a2f" stroke="#2f1f12" stroke-width="1.4"/><circle cx="293.0" cy="-8" r="2.6" fill="none" stroke="#3b2716" stroke-width=".8"/><circle cx="306.0" cy="-8" r="6.4" fill="#6a4a2f" stroke="#2f1f12" stroke-width="1.4"/><circle cx="306.0" cy="-8" r="2.6" fill="none" stroke="#3b2716" stroke-width=".8"/><circle cx="319.0" cy="-8" r="6.4" fill="#6a4a2f" stroke="#2f1f12" stroke-width="1.4"/><circle cx="319.0" cy="-8" r="2.6" fill="none" stroke="#3b2716" stroke-width=".8"/><circle cx="332.0" cy="-8" r="6.4" fill="#6a4a2f" stroke="#2f1f12" stroke-width="1.4"/><circle cx="332.0" cy="-8" r="2.6" fill="none" stroke="#3b2716" stroke-width=".8"/><circle cx="286.5" cy="-20" r="6.4" fill="#6a4a2f" stroke="#2f1f12" stroke-width="1.4"/><circle cx="286.5" cy="-20" r="2.6" fill="none" stroke="#3b2716" stroke-width=".8"/><circle cx="299.5" cy="-20" r="6.4" fill="#6a4a2f" stroke="#2f1f12" stroke-width="1.4"/><circle cx="299.5" cy="-20" r="2.6" fill="none" stroke="#3b2716" stroke-width=".8"/><circle cx="312.5" cy="-20" r="6.4" fill="#6a4a2f" stroke="#2f1f12" stroke-width="1.4"/><circle cx="312.5" cy="-20" r="2.6" fill="none" stroke="#3b2716" stroke-width=".8"/><circle cx="325.5" cy="-20" r="6.4" fill="#6a4a2f" stroke="#2f1f12" stroke-width="1.4"/><circle cx="325.5" cy="-20" r="2.6" fill="none" stroke="#3b2716" stroke-width=".8"/><circle cx="293.0" cy="-32" r="6.4" fill="#6a4a2f" stroke="#2f1f12" stroke-width="1.4"/><circle cx="293.0" cy="-32" r="2.6" fill="none" stroke="#3b2716" stroke-width=".8"/><circle cx="306.0" cy="-32" r="6.4" fill="#6a4a2f" stroke="#2f1f12" stroke-width="1.4"/><circle cx="306.0" cy="-32" r="2.6" fill="none" stroke="#3b2716" stroke-width=".8"/><circle cx="319.0" cy="-32" r="6.4" fill="#6a4a2f" stroke="#2f1f12" stroke-width="1.4"/><circle cx="319.0" cy="-32" r="2.6" fill="none" stroke="#3b2716" stroke-width=".8"/></g><ellipse cx="203.0" cy="624.2" rx="94.5" ry="18.9" fill="url(#d5)"/><ellipse cx="308.0" cy="626.3" rx="73.5" ry="16.8" fill="url(#d5)"/><ellipse cx="415.1" cy="624.2" rx="94.5" ry="18.9" fill="url(#d5)"/><path d="M0.0,660 Q1.0,641.1 3.4,628.5 Q4.6,642.6 3.6,660Z" fill="#223421"/><path d="M7.0,660 Q9.5,628.1 15.3,606.8 Q11.9,630.7 9.4,660Z" fill="#2b3f24"/><path d="M9.5,660 Q9.9,632.4 11.0,614.0 Q12.1,634.7 11.6,660Z" fill="#16261a"/><path d="M15.1,660 Q17.8,629.7 24.0,609.4 Q21.7,632.2 19.0,660Z" fill="#223421"/><path d="M17.7,660 Q17.7,634.2 17.7,617.0 Q20.0,636.3 20.0,660Z" fill="#223421"/><ellipse cx="17.7" cy="614.0" rx="1.6" ry="4.5" fill="#c9b48a" fill-opacity=".75"/><path d="M23.6,660 Q25.2,644.3 29.1,633.8 Q27.3,645.6 25.6,660Z" fill="#16261a"/><path d="M27.6,660 Q25.9,627.6 22.0,606.1 Q28.0,630.3 29.7,660Z" fill="#16261a"/><ellipse cx="22.0" cy="603.1" rx="1.6" ry="4.5" fill="#c9b48a" fill-opacity=".75"/><path d="M31.0,660 Q32.6,619.7 36.5,592.8 Q36.3,623.1 34.7,660Z" fill="#2b3f24"/><path d="M33.8,660 Q34.1,624.5 34.9,600.8 Q37.1,627.4 36.8,660Z" fill="#223421"/><path d="M40.3,660 Q39.6,630.8 37.9,611.3 Q42.7,633.2 43.5,660Z" fill="#223421"/><path d="M45.0,660 Q46.8,636.8 51.0,621.4 Q49.2,638.8 47.4,660Z" fill="#2b3f24"/><path d="M49.7,660 Q50.0,627.4 50.6,605.6 Q53.9,630.1 53.6,660Z" fill="#16261a"/><path d="M53.7,660 Q51.6,606.8 46.7,571.4 Q55.3,611.3 57.3,660Z" fill="#2b3f24"/><path d="M60.3,660 Q60.9,633.4 62.1,615.7 Q63.6,635.7 63.1,660Z" fill="#16261a"/><path d="M67.0,660 Q66.6,640.7 65.7,627.8 Q69.0,642.3 69.4,660Z" fill="#16261a"/><path d="M73.5,660 Q73.0,607.8 71.9,572.9 Q77.5,612.1 78.0,660Z" fill="#2b3f24"/><path d="M80.0,660 Q79.3,627.4 77.8,605.6 Q82.0,630.1 82.6,660Z" fill="#16261a"/><path d="M82.8,660 Q84.3,614.2 87.8,583.6 Q87.5,618.0 86.0,660Z" fill="#223421"/><ellipse cx="87.8" cy="580.6" rx="1.6" ry="4.5" fill="#c9b48a" fill-opacity=".75"/><path d="M86.5,660 Q86.1,635.8 85.0,619.7 Q88.5,637.8 88.9,660Z" fill="#16261a"/><path d="M91.9,660 Q90.0,641.9 85.6,629.8 Q93.8,643.4 95.7,660Z" fill="#16261a"/><path d="M98.7,660 Q99.9,625.9 102.8,603.2 Q102.0,628.8 100.8,660Z" fill="#16261a"/><path d="M102.9,660 Q102.1,641.5 100.5,629.2 Q106.1,643.1 106.8,660Z" fill="#223421"/><path d="M109.2,660 Q109.4,635.1 109.8,618.4 Q112.0,637.1 111.9,660Z" fill="#2b3f24"/><ellipse cx="109.8" cy="615.4" rx="1.6" ry="4.5" fill="#c9b48a" fill-opacity=".75"/><path d="M114.8,660 Q112.2,607.9 106.2,573.2 Q115.7,612.3 118.2,660Z" fill="#2b3f24"/><path d="M121.6,660 Q122.5,630.3 124.9,610.5 Q126.4,632.8 125.4,660Z" fill="#16261a"/><path d="M124.5,660 Q121.9,644.1 115.9,633.4 Q125.0,645.4 127.6,660Z" fill="#16261a"/><ellipse cx="115.9" cy="630.4" rx="1.6" ry="4.5" fill="#c9b48a" fill-opacity=".75"/><path d="M127.5,660 Q126.5,636.2 124.0,620.3 Q130.8,638.2 131.9,660Z" fill="#223421"/><path d="M131.0,660 Q129.3,641.0 125.3,628.4 Q132.2,642.6 134.0,660Z" fill="#2b3f24"/><path d="M136.9,660 Q136.9,622.6 137.0,597.7 Q140.8,625.7 140.8,660Z" fill="#16261a"/><path d="M139.5,660 Q137.1,628.5 131.6,607.5 Q141.0,631.1 143.4,660Z" fill="#16261a"/><path d="M143.0,660 Q143.6,646.8 144.9,638.1 Q147.4,647.9 146.9,660Z" fill="#16261a"/><path d="M146.9,660 Q145.8,646.9 143.2,638.2 Q149.0,648.0 150.2,660Z" fill="#2b3f24"/><path d="M152.0,660 Q149.6,647.3 144.1,638.9 Q153.1,648.4 155.5,660Z" fill="#223421"/><path d="M155.9,660 Q156.0,647.2 156.3,638.6 Q159.4,648.2 159.3,660Z" fill="#16261a"/><path d="M159.8,660 Q157.5,647.8 152.0,639.6 Q161.1,648.8 163.5,660Z" fill="#223421"/><ellipse cx="152.0" cy="636.6" rx="1.6" ry="4.5" fill="#c9b48a" fill-opacity=".75"/><path d="M162.7,660 Q164.4,647.9 168.3,639.9 Q168.3,648.9 166.6,660Z" fill="#223421"/><path d="M169.4,660 Q170.5,647.2 173.1,638.6 Q173.7,648.3 172.6,660Z" fill="#2b3f24"/><path d="M173.7,660 Q171.3,647.7 165.6,639.5 Q174.4,648.8 176.8,660Z" fill="#16261a"/><path d="M178.9,660 Q178.5,647.5 177.6,639.2 Q182.5,648.6 182.9,660Z" fill="#223421"/><path d="M183.6,660 Q186.1,647.2 191.9,638.7 Q188.3,648.3 185.8,660Z" fill="#223421"/><path d="M187.8,660 Q186.2,647.3 182.7,638.8 Q189.4,648.3 190.9,660Z" fill="#2b3f24"/><path d="M193.3,660 Q194.3,647.0 196.9,638.3 Q198.1,648.1 197.0,660Z" fill="#16261a"/><path d="M198.0,660 Q197.4,647.6 195.9,639.4 Q200.7,648.7 201.3,660Z" fill="#2b3f24"/><path d="M200.5,660 Q199.5,647.6 197.2,639.4 Q202.5,648.7 203.5,660Z" fill="#16261a"/><ellipse cx="197.2" cy="636.4" rx="1.6" ry="4.5" fill="#c9b48a" fill-opacity=".75"/><path d="M203.8,660 Q204.5,647.4 206.0,639.0 Q207.4,648.4 206.8,660Z" fill="#2b3f24"/><path d="M206.8,660 Q207.9,646.9 210.5,638.1 Q210.4,647.9 209.3,660Z" fill="#223421"/><path d="M211.9,660 Q209.7,647.8 204.4,639.6 Q211.8,648.8 214.0,660Z" fill="#2b3f24"/><path d="M218.2,660 Q219.2,647.8 221.5,639.7 Q221.7,648.8 220.7,660Z" fill="#2b3f24"/><path d="M224.0,660 Q223.4,647.8 222.0,639.7 Q226.4,648.8 227.0,660Z" fill="#223421"/><path d="M227.7,660 Q227.1,647.8 225.7,639.7 Q229.8,648.8 230.4,660Z" fill="#16261a"/><path d="M231.2,660 Q231.9,647.6 233.5,639.3 Q236.1,648.6 235.4,660Z" fill="#223421"/><ellipse cx="233.5" cy="636.3" rx="1.6" ry="4.5" fill="#c9b48a" fill-opacity=".75"/><path d="M236.0,660 Q236.5,648.0 237.9,639.9 Q240.3,649.0 239.7,660Z" fill="#16261a"/><path d="M242.7,660 Q245.2,647.8 251.2,639.7 Q247.7,648.8 245.2,660Z" fill="#223421"/><path d="M246.9,660 Q248.4,647.8 252.1,639.7 Q252.5,648.9 250.9,660Z" fill="#2b3f24"/><path d="M250.7,660 Q252.8,647.5 257.6,639.2 Q255.4,648.5 253.4,660Z" fill="#2b3f24"/><path d="M257.0,660 Q259.1,646.9 263.9,638.1 Q261.2,648.0 259.1,660Z" fill="#2b3f24"/><ellipse cx="263.9" cy="635.1" rx="1.6" ry="4.5" fill="#c9b48a" fill-opacity=".75"/><path d="M261.5,660 Q264.1,647.0 270.3,638.3 Q267.8,648.1 265.1,660Z" fill="#16261a"/><ellipse cx="270.3" cy="635.3" rx="1.6" ry="4.5" fill="#c9b48a" fill-opacity=".75"/><path d="M267.7,660 Q268.3,647.3 269.8,638.8 Q271.5,648.3 270.8,660Z" fill="#2b3f24"/><path d="M271.4,660 Q270.3,647.6 267.7,639.3 Q273.9,648.6 274.9,660Z" fill="#16261a"/><path d="M274.7,660 Q276.5,647.9 280.6,639.8 Q279.4,648.9 277.6,660Z" fill="#223421"/><ellipse cx="280.6" cy="636.8" rx="1.6" ry="4.5" fill="#c9b48a" fill-opacity=".75"/><path d="M277.4,660 Q278.4,647.4 280.6,639.0 Q282.0,648.5 281.0,660Z" fill="#16261a"/><ellipse cx="280.6" cy="636.0" rx="1.6" ry="4.5" fill="#c9b48a" fill-opacity=".75"/><path d="M280.9,660 Q279.6,647.6 276.4,639.3 Q282.1,648.6 283.4,660Z" fill="#16261a"/><path d="M285.8,660 Q287.6,647.9 291.7,639.8 Q290.1,648.9 288.3,660Z" fill="#16261a"/><path d="M291.0,660 Q291.8,647.2 293.6,638.7 Q293.8,648.3 293.1,660Z" fill="#223421"/><path d="M294.3,660 Q295.9,647.0 299.8,638.3 Q300.2,648.1 298.5,660Z" fill="#2b3f24"/><ellipse cx="299.8" cy="635.3" rx="1.6" ry="4.5" fill="#c9b48a" fill-opacity=".75"/><path d="M299.8,660 Q300.4,647.2 301.9,638.7 Q304.0,648.3 303.3,660Z" fill="#16261a"/><path d="M304.1,660 Q306.4,646.9 311.9,638.1 Q310.4,648.0 308.1,660Z" fill="#16261a"/><path d="M307.4,660 Q304.8,647.7 298.8,639.5 Q307.7,648.7 310.3,660Z" fill="#2b3f24"/><path d="M314.0,660 Q316.1,647.4 320.9,638.9 Q318.6,648.4 316.6,660Z" fill="#2b3f24"/><path d="M320.0,660 Q322.1,647.1 326.9,638.5 Q325.0,648.2 322.9,660Z" fill="#16261a"/><path d="M325.2,660 Q326.2,647.6 328.3,639.3 Q330.3,648.6 329.4,660Z" fill="#2b3f24"/><path d="M327.9,660 Q328.3,647.5 329.3,639.2 Q330.4,648.5 329.9,660Z" fill="#2b3f24"/><path d="M333.7,660 Q333.9,647.7 334.3,639.6 Q336.8,648.8 336.6,660Z" fill="#2b3f24"/><path d="M336.9,660 Q337.5,647.2 339.0,638.7 Q340.7,648.3 340.1,660Z" fill="#223421"/><path d="M342.3,660 Q342.0,647.7 341.1,639.5 Q344.9,648.7 345.3,660Z" fill="#223421"/><path d="M345.0,660 Q343.4,647.0 339.7,638.3 Q347.4,648.1 349.0,660Z" fill="#223421"/><path d="M351.1,660 Q352.4,647.1 355.3,638.5 Q356.9,648.2 355.6,660Z" fill="#223421"/><path d="M353.8,660 Q355.8,647.1 360.4,638.4 Q358.5,648.1 356.5,660Z" fill="#223421"/><path d="M357.3,660 Q359.0,647.1 362.9,638.5 Q362.2,648.2 360.5,660Z" fill="#16261a"/><ellipse cx="362.9" cy="635.5" rx="1.6" ry="4.5" fill="#c9b48a" fill-opacity=".75"/><path d="M363.9,660 Q363.0,647.8 360.9,639.7 Q365.9,648.9 366.8,660Z" fill="#2b3f24"/><path d="M369.1,660 Q371.1,647.2 375.7,638.6 Q375.0,648.2 373.0,660Z" fill="#223421"/><path d="M374.9,660 Q372.9,647.4 368.2,639.1 Q377.1,648.5 379.2,660Z" fill="#2b3f24"/><path d="M381.4,660 Q380.4,647.9 378.0,639.8 Q384.0,648.9 385.0,660Z" fill="#16261a"/><path d="M388.1,660 Q388.8,647.9 390.3,639.8 Q392.4,648.9 391.8,660Z" fill="#2b3f24"/><path d="M392.9,660 Q391.4,647.1 387.8,638.6 Q395.1,648.2 396.6,660Z" fill="#223421"/><path d="M397.7,660 Q399.6,648.0 403.9,640.0 Q402.3,649.0 400.4,660Z" fill="#223421"/><path d="M402.1,660 Q404.2,647.9 408.9,639.8 Q407.8,648.9 405.7,660Z" fill="#16261a"/><path d="M405.6,660 Q405.6,647.2 405.4,638.6 Q408.9,648.2 409.0,660Z" fill="#2b3f24"/><path d="M411.0,660 Q410.3,647.2 408.6,638.7 Q413.1,648.3 413.9,660Z" fill="#223421"/><path d="M415.6,660 Q414.1,647.4 410.6,639.0 Q418.0,648.4 419.5,660Z" fill="#16261a"/><path d="M422.1,660 Q423.6,647.0 427.0,638.3 Q427.8,648.1 426.4,660Z" fill="#2b3f24"/><ellipse cx="427.0" cy="635.3" rx="1.6" ry="4.5" fill="#c9b48a" fill-opacity=".75"/><path d="M426.8,660 Q428.4,647.8 432.2,639.7 Q431.2,648.8 429.6,660Z" fill="#223421"/><path d="M433.6,660 Q432.0,647.5 428.3,639.1 Q434.1,648.5 435.7,660Z" fill="#16261a"/><path d="M437.1,660 Q437.3,647.9 437.8,639.8 Q439.6,648.9 439.4,660Z" fill="#223421"/><path d="M440.2,660 Q438.6,647.2 434.9,638.6 Q440.7,648.2 442.2,660Z" fill="#16261a"/><path d="M445.3,660 Q444.9,647.7 444.0,639.5 Q448.9,648.7 449.2,660Z" fill="#2b3f24"/><path d="M451.4,660 Q453.9,647.5 459.7,639.2 Q457.9,648.6 455.4,660Z" fill="#2b3f24"/><path d="M457.4,660 Q457.4,648.0 457.4,639.9 Q461.7,649.0 461.7,660Z" fill="#2b3f24"/><path d="M460.1,660 Q461.6,647.2 465.1,638.7 Q464.3,648.3 462.8,660Z" fill="#223421"/><path d="M465.0,660 Q464.1,647.8 462.1,639.7 Q467.8,648.8 468.7,660Z" fill="#2b3f24"/><path d="M471.6,660 Q469.5,647.6 464.7,639.4 Q473.0,648.7 475.1,660Z" fill="#223421"/><path d="M477.7,660 Q475.8,616.4 471.4,587.3 Q478.6,620.0 480.5,660Z" fill="#16261a"/><path d="M483.2,660 Q480.8,609.9 475.1,576.5 Q484.7,614.1 487.1,660Z" fill="#223421"/><path d="M486.2,660 Q484.7,607.2 481.1,571.9 Q488.9,611.6 490.4,660Z" fill="#2b3f24"/><path d="M490.9,660 Q490.0,635.2 487.9,618.7 Q492.5,637.3 493.4,660Z" fill="#16261a"/><path d="M494.3,660 Q492.8,646.7 489.2,637.8 Q497.0,647.8 498.5,660Z" fill="#223421"/><ellipse cx="489.2" cy="634.8" rx="1.6" ry="4.5" fill="#c9b48a" fill-opacity=".75"/><path d="M500.3,660 Q502.8,612.3 508.7,580.5 Q505.5,616.3 502.9,660Z" fill="#223421"/><path d="M504.5,660 Q505.0,636.2 506.2,620.4 Q509.1,638.2 508.6,660Z" fill="#2b3f24"/><path d="M507.7,660 Q509.8,632.5 514.9,614.2 Q513.5,634.8 511.3,660Z" fill="#223421"/><path d="M513.6,660 Q516.1,619.6 522.0,592.7 Q520.3,623.0 517.8,660Z" fill="#16261a"/><path d="M517.5,660 Q519.2,624.5 523.3,600.8 Q523.2,627.4 521.5,660Z" fill="#2b3f24"/><path d="M522.8,660 Q521.6,636.5 518.6,620.9 Q525.5,638.5 526.8,660Z" fill="#2b3f24"/><path d="M526.4,660 Q523.8,642.9 517.8,631.5 Q526.3,644.3 528.9,660Z" fill="#223421"/><path d="M531.1,660 Q531.2,618.5 531.4,590.9 Q535.6,622.0 535.5,660Z" fill="#2b3f24"/><path d="M535.3,660 Q536.8,609.0 540.2,575.0 Q540.1,613.2 538.6,660Z" fill="#16261a"/><path d="M537.8,660 Q537.6,644.1 537.0,633.5 Q541.5,645.4 541.7,660Z" fill="#16261a"/><ellipse cx="537.0" cy="630.5" rx="1.6" ry="4.5" fill="#c9b48a" fill-opacity=".75"/><path d="M541.8,660 Q542.3,640.6 543.3,627.6 Q545.9,642.2 545.4,660Z" fill="#2b3f24"/><path d="M547.8,660 Q548.1,608.1 548.7,573.4 Q550.8,612.4 550.5,660Z" fill="#16261a"/><path d="M554.0,660 Q552.7,606.9 549.6,571.4 Q556.3,611.3 557.6,660Z" fill="#223421"/><path d="M557.7,660 Q557.9,633.3 558.3,615.6 Q561.5,635.6 561.3,660Z" fill="#2b3f24"/><path d="M563.1,660 Q561.9,613.6 559.1,582.7 Q565.8,617.5 567.0,660Z" fill="#16261a"/><path d="M565.8,660 Q566.8,614.9 569.2,584.8 Q570.1,618.6 569.0,660Z" fill="#16261a"/><path d="M569.0,660 Q569.3,623.9 570.0,599.9 Q573.4,626.9 573.2,660Z" fill="#223421"/><path d="M572.3,660 Q570.1,616.0 565.0,586.7 Q574.4,619.7 576.6,660Z" fill="#223421"/><path d="M576.3,660 Q575.6,617.5 574.2,589.1 Q579.6,621.0 580.2,660Z" fill="#223421"/><path d="M582.0,660 Q581.1,637.7 578.8,622.9 Q583.8,639.6 584.8,660Z" fill="#223421"/><path d="M585.4,660 Q586.0,607.8 587.5,573.1 Q590.3,612.2 589.6,660Z" fill="#223421"/><path d="M591.0,660 Q589.3,615.1 585.4,585.1 Q592.9,618.8 594.6,660Z" fill="#16261a"/><path d="M597.6,660 Q598.8,644.4 601.5,634.1 Q602.0,645.7 600.8,660Z" fill="#16261a"/><path d="M0.0,754 Q-2.1,698.6 -7.1,661.7 Q0.4,703.2 2.5,754Z" fill="#101c13"/><path d="M3.7,754 Q3.5,690.1 3.1,647.4 Q7.4,695.4 7.5,754Z" fill="#101c13"/><path d="M10.1,754 Q13.6,689.9 21.8,647.2 Q16.6,695.3 13.1,754Z" fill="#101c13"/><path d="M17.4,754 Q14.0,689.2 6.1,646.0 Q18.3,694.6 21.7,754Z" fill="#101c13"/><path d="M21.1,754 Q21.0,720.9 20.7,698.8 Q24.9,723.7 25.1,754Z" fill="#182819"/><path d="M26.1,754 Q22.7,695.2 14.9,656.1 Q27.2,700.1 30.5,754Z" fill="#182819"/><path d="M33.7,754 Q33.7,707.5 33.9,676.4 Q37.4,711.3 37.3,754Z" fill="#182819"/><path d="M39.9,754 Q42.2,706.4 47.5,674.7 Q46.3,710.4 44.0,754Z" fill="#182819"/><path d="M45.2,754 Q42.1,700.9 34.6,665.5 Q46.4,705.3 49.6,754Z" fill="#101c13"/><path d="M53.3,754 Q52.8,713.9 51.6,687.1 Q56.1,717.2 56.6,754Z" fill="#101c13"/><path d="M56.9,754 Q57.2,724.7 58.0,705.2 Q61.2,727.2 60.8,754Z" fill="#101c13"/><path d="M62.1,754 Q64.1,714.5 68.8,688.1 Q68.6,717.8 66.5,754Z" fill="#101c13"/><path d="M69.7,754 Q69.0,716.3 67.4,691.1 Q71.1,719.4 71.8,754Z" fill="#182819"/><path d="M76.5,754 Q73.2,705.6 65.5,673.3 Q75.4,709.6 78.7,754Z" fill="#101c13"/><path d="M83.8,754 Q85.1,689.6 88.1,646.7 Q87.7,695.0 86.5,754Z" fill="#182819"/><path d="M88.6,754 Q87.9,710.3 86.0,681.1 Q89.9,713.9 90.7,754Z" fill="#101c13"/><path d="M92.5,754 Q89.7,729.7 83.1,713.4 Q94.1,731.7 96.9,754Z" fill="#182819"/><path d="M95.6,754 Q96.4,722.3 98.3,701.2 Q100.2,725.0 99.4,754Z" fill="#182819"/><path d="M98.9,754 Q96.5,689.2 90.8,645.9 Q99.2,694.6 101.6,754Z" fill="#101c13"/><path d="M102.3,754 Q105.0,693.5 111.4,653.2 Q109.1,698.6 106.4,754Z" fill="#182819"/><path d="M108.2,754 Q106.6,696.2 102.9,657.6 Q110.7,701.0 112.3,754Z" fill="#182819"/><path d="M114.7,754 Q114.0,707.0 112.2,675.7 Q116.2,710.9 117.0,754Z" fill="#101c13"/><path d="M120.1,754 Q117.5,717.1 111.6,692.6 Q121.0,720.2 123.6,754Z" fill="#182819"/><path d="M125.3,754 Q126.7,696.1 130.1,657.5 Q130.0,700.9 128.5,754Z" fill="#101c13"/><path d="M132.2,754 Q128.9,691.0 121.3,649.0 Q131.3,696.3 134.6,754Z" fill="#101c13"/><path d="M137.0,754 Q135.7,721.6 132.7,700.0 Q138.9,724.3 140.1,754Z" fill="#182819"/><path d="M141.3,754 Q144.7,708.0 152.7,677.3 Q146.9,711.8 143.5,754Z" fill="#101c13"/><path d="M145.4,754 Q142.8,698.2 136.8,661.0 Q146.7,702.8 149.2,754Z" fill="#101c13"/><path d="M153.6,754 Q155.3,689.2 159.1,645.9 Q157.7,694.6 156.0,754Z" fill="#101c13"/><path d="M161.7,754 Q158.5,688.6 151.0,645.0 Q161.7,694.1 164.9,754Z" fill="#101c13"/><path d="M166.9,754 Q165.8,699.1 163.2,662.4 Q168.4,703.6 169.5,754Z" fill="#101c13"/><path d="M171.6,754 Q172.8,712.5 175.8,684.8 Q175.9,715.9 174.7,754Z" fill="#182819"/><path d="M176.3,754 Q178.3,719.2 183.0,696.1 Q181.0,722.1 179.0,754Z" fill="#182819"/><path d="M184.6,754 Q184.4,705.6 183.9,673.4 Q186.5,709.7 186.7,754Z" fill="#182819"/><path d="M189.8,754 Q191.8,692.9 196.5,652.1 Q196.3,698.0 194.3,754Z" fill="#182819"/><path d="M193.8,754 Q197.2,717.5 205.2,693.2 Q200.6,720.6 197.2,754Z" fill="#182819"/><path d="M200.5,754 Q202.0,728.8 205.5,712.0 Q205.9,730.9 204.4,754Z" fill="#182819"/><path d="M205.1,754 Q207.0,695.1 211.4,655.8 Q210.3,700.0 208.4,754Z" fill="#101c13"/><path d="M212.8,754 Q214.1,698.8 217.2,661.9 Q217.6,703.4 216.3,754Z" fill="#101c13"/><path d="M216.5,754 Q219.8,701.3 227.4,666.2 Q222.0,705.7 218.7,754Z" fill="#182819"/><path d="M220.2,754 Q223.4,713.4 230.9,686.3 Q227.0,716.8 223.8,754Z" fill="#101c13"/><path d="M227.3,754 Q228.0,719.4 229.7,696.4 Q231.9,722.3 231.2,754Z" fill="#182819"/><path d="M233.8,754 Q233.6,714.5 233.1,688.2 Q236.3,717.8 236.5,754Z" fill="#101c13"/><path d="M238.5,754 Q241.5,706.8 248.6,675.4 Q245.2,710.8 242.1,754Z" fill="#182819"/><path d="M246.8,754 Q250.2,695.2 258.2,656.1 Q253.7,700.1 250.3,754Z" fill="#182819"/><path d="M250.4,754 Q248.4,709.7 243.8,680.2 Q252.5,713.4 254.5,754Z" fill="#182819"/><path d="M256.0,754 Q254.4,723.2 250.6,702.6 Q257.9,725.7 259.5,754Z" fill="#101c13"/><path d="M263.2,754 Q265.2,725.5 269.8,706.6 Q268.8,727.9 266.8,754Z" fill="#182819"/><path d="M270.9,754 Q269.8,722.5 267.3,701.6 Q272.8,725.2 273.9,754Z" fill="#182819"/><path d="M276.6,754 Q277.9,718.4 281.0,694.7 Q282.3,721.4 281.0,754Z" fill="#101c13"/><path d="M282.6,754 Q283.6,717.5 286.0,693.1 Q285.8,720.5 284.8,754Z" fill="#101c13"/><path d="M290.7,754 Q291.8,723.9 294.2,703.8 Q296.1,726.4 295.1,754Z" fill="#182819"/><path d="M297.2,754 Q296.2,709.1 293.8,679.2 Q299.0,712.9 300.1,754Z" fill="#101c13"/><path d="M303.8,754 Q305.7,688.7 310.1,645.1 Q309.5,694.1 307.6,754Z" fill="#101c13"/><path d="M308.8,754 Q307.7,699.0 305.1,662.3 Q310.6,703.6 311.7,754Z" fill="#101c13"/><path d="M314.5,754 Q315.2,691.2 316.6,649.3 Q318.0,696.4 317.4,754Z" fill="#101c13"/><path d="M321.6,754 Q318.1,699.1 310.0,662.4 Q321.4,703.6 324.9,754Z" fill="#182819"/><path d="M327.3,754 Q327.9,697.1 329.3,659.2 Q330.1,701.8 329.5,754Z" fill="#182819"/><path d="M332.4,754 Q331.0,727.8 327.8,710.3 Q334.5,730.0 335.9,754Z" fill="#182819"/><path d="M338.5,754 Q335.3,705.3 327.9,672.8 Q338.0,709.3 341.2,754Z" fill="#101c13"/><path d="M342.3,754 Q345.5,723.7 352.8,703.4 Q347.5,726.2 344.4,754Z" fill="#182819"/><path d="M348.2,754 Q345.8,703.9 340.1,670.5 Q348.7,708.1 351.1,754Z" fill="#182819"/><path d="M354.7,754 Q353.2,709.7 349.6,680.1 Q356.2,713.3 357.8,754Z" fill="#182819"/><path d="M361.8,754 Q360.2,689.5 356.7,646.6 Q363.8,694.9 365.4,754Z" fill="#182819"/><path d="M369.8,754 Q369.6,718.2 369.1,694.4 Q372.5,721.2 372.7,754Z" fill="#182819"/><path d="M376.4,754 Q379.4,705.2 386.4,672.7 Q382.4,709.3 379.4,754Z" fill="#182819"/><path d="M383.8,754 Q384.9,722.3 387.6,701.2 Q388.4,724.9 387.3,754Z" fill="#182819"/><path d="M390.4,754 Q391.2,727.2 393.0,709.4 Q395.4,729.5 394.7,754Z" fill="#101c13"/><path d="M396.0,754 Q399.4,695.8 407.1,657.0 Q403.1,700.6 399.8,754Z" fill="#182819"/><path d="M403.4,754 Q402.0,720.1 398.7,697.4 Q405.9,722.9 407.3,754Z" fill="#101c13"/><path d="M408.5,754 Q410.8,689.8 416.2,647.1 Q412.9,695.2 410.6,754Z" fill="#182819"/><path d="M413.3,754 Q412.7,714.6 411.1,688.4 Q415.4,717.9 416.1,754Z" fill="#101c13"/><path d="M416.8,754 Q415.7,716.2 413.3,691.0 Q419.7,719.4 420.7,754Z" fill="#182819"/><path d="M422.5,754 Q422.8,718.8 423.5,695.4 Q425.5,721.8 425.2,754Z" fill="#182819"/><path d="M429.7,754 Q428.3,710.3 425.0,681.2 Q431.0,714.0 432.4,754Z" fill="#182819"/><path d="M437.5,754 Q438.6,717.3 441.1,692.9 Q441.3,720.4 440.2,754Z" fill="#182819"/><path d="M445.5,754 Q446.4,705.0 448.5,672.4 Q448.7,709.1 447.8,754Z" fill="#101c13"/><path d="M452.9,754 Q449.9,693.1 443.1,652.5 Q452.0,698.2 455.0,754Z" fill="#182819"/><path d="M457.1,754 Q457.7,700.2 458.9,664.4 Q459.9,704.7 459.3,754Z" fill="#182819"/><path d="M461.3,754 Q461.7,705.5 462.4,673.2 Q464.2,709.6 463.9,754Z" fill="#182819"/><path d="M466.9,754 Q465.4,696.9 461.8,658.8 Q468.8,701.7 470.3,754Z" fill="#101c13"/><path d="M474.7,754 Q471.9,729.0 465.2,712.4 Q474.6,731.1 477.5,754Z" fill="#101c13"/><path d="M480.9,754 Q482.1,723.5 484.8,703.2 Q486.0,726.1 484.9,754Z" fill="#182819"/><path d="M484.0,754 Q481.7,721.1 476.2,699.2 Q483.8,723.8 486.1,754Z" fill="#182819"/><path d="M490.6,754 Q494.1,711.6 502.1,683.4 Q498.4,715.2 495.0,754Z" fill="#101c13"/><path d="M496.4,754 Q494.2,706.5 488.8,674.9 Q497.8,710.5 500.1,754Z" fill="#101c13"/><path d="M503.1,754 Q503.5,725.3 504.6,706.2 Q508.0,727.7 507.5,754Z" fill="#182819"/><path d="M508.0,754 Q510.0,719.1 514.9,695.8 Q512.8,722.0 510.7,754Z" fill="#182819"/><path d="M514.1,754 Q514.9,723.9 516.7,703.8 Q518.2,726.4 517.4,754Z" fill="#101c13"/><path d="M519.0,754 Q518.5,716.5 517.4,691.5 Q521.3,719.6 521.8,754Z" fill="#101c13"/><path d="M526.2,754 Q524.5,703.0 520.5,669.0 Q528.4,707.3 530.1,754Z" fill="#182819"/><path d="M530.5,754 Q527.8,729.6 521.6,713.3 Q531.3,731.6 534.0,754Z" fill="#101c13"/><path d="M535.5,754 Q536.5,711.9 538.9,683.8 Q538.8,715.4 537.8,754Z" fill="#101c13"/><path d="M542.2,754 Q543.9,705.1 547.9,672.5 Q546.7,709.2 544.9,754Z" fill="#101c13"/><path d="M548.8,754 Q547.6,690.6 544.9,648.3 Q550.9,695.9 552.1,754Z" fill="#182819"/><path d="M556.8,754 Q554.6,716.1 549.6,690.8 Q557.1,719.2 559.2,754Z" fill="#182819"/><path d="M564.7,754 Q564.5,696.6 564.1,658.3 Q567.8,701.4 567.9,754Z" fill="#182819"/><path d="M568.1,754 Q566.4,694.5 562.6,654.9 Q570.7,699.5 572.3,754Z" fill="#101c13"/><path d="M571.4,754 Q571.4,714.0 571.4,687.3 Q575.6,717.3 575.6,754Z" fill="#101c13"/><path d="M577.3,754 Q574.0,696.9 566.4,658.8 Q576.8,701.7 580.1,754Z" fill="#182819"/><path d="M581.9,754 Q583.9,716.5 588.8,691.5 Q587.4,719.6 585.3,754Z" fill="#182819"/><path d="M585.9,754 Q582.4,715.5 574.4,689.9 Q585.9,718.7 589.4,754Z" fill="#182819"/><path d="M590.4,754 Q592.8,709.4 598.5,679.6 Q595.6,713.1 593.2,754Z" fill="#182819"/><path d="M594.6,754 Q596.3,715.6 600.4,690.0 Q598.9,718.8 597.2,754Z" fill="#101c13"/></svg>