<svg xmlns="http://www.w3.org/2000/svg" viewBox="0 0 600 750" preserveAspectRatio="xMidYMid slice"><defs><linearGradient id="a" x1="0" y1="0" x2="0" y2="1"><stop offset="0" stop-color="#070d12"/><stop offset="1" stop-color="#1c3a36"/></linearGradient><linearGradient id="g" x1="0" y1="1" x2="1" y2="0"><stop offset="0" stop-color="#cfe0e8" stop-opacity="0"/><stop offset=".5" stop-color="#cfe0e8" stop-opacity=".22"/><stop offset="1" stop-color="#cfe0e8" stop-opacity="0"/></linearGradient></defs><rect width="600" height="750" fill="url(#a)"/><path d="M-60,620 C150,380 380,220 680,60 L700,140 C420,300 200,480 20,720Z" fill="url(#g)"/><circle cx="476.0" cy="493.2" r="1.13" fill="#fff" fill-opacity="0.52"/><circle cx="0.3" cy="397.7" r="1.11" fill="#fff" fill-opacity="0.84"/><circle cx="223.9" cy="462.1" r="0.81" fill="#fff" fill-opacity="0.87"/><circle cx="437.9" cy="248.4" r="1.21" fill="#fff" fill-opacity="0.79"/><circle cx="115.8" cy="332.2" r="1.61" fill="#fff" fill-opacity="0.52"/><circle cx="482.0" cy="411.4" r="1.67" fill="#fff" fill-opacity="0.57"/><circle cx="55.9" cy="480.2" r="1.61" fill="#fff" fill-opacity="0.64"/><circle cx="56.3" cy="118.3" r="1.35" fill="#fff" fill-opacity="0.54"/><circle cx="570.8" cy="353.1" r="0.70" fill="#fff" fill-opacity="0.78"/><circle cx="216.2" cy="559.6" r="1.76" fill="#fff" fill-opacity="0.68"/><circle cx="386.7" cy="418.7" r="1.61" fill="#fff" fill-opacity="0.98"/><circle cx="17.1" cy="216.8" r="1.30" fill="#fff" fill-opacity="0.55"/><circle cx="353.5" cy="53.8" r="1.72" fill="#fff" fill-opacity="0.69"/><circle cx="70.1" cy="397.6" r="0.87" fill="#fff" fill-opacity="0.48"/><circle cx="290.2" cy="82.9" r="0.71" fill="#fff" fill-opacity="0.91"/><circle cx="418.9" cy="7.5" r="1.57" fill="#fff" fill-opacity="0.36"/><circle cx="199.7" cy="542.7" r="1.33" fill="#fff" fill-opacity="0.55"/><circle cx="226.4" cy="233.5" r="0.59" fill="#fff" fill-opacity="1.00"/><circle cx="32.3" cy="253.7" r="1.52" fill="#fff" fill-opacity="0.61"/><circle cx="588.6" cy="147.2" r="1.87" fill="#fff" fill-opacity="0.93"/><circle cx="402.1" cy="533.7" r="1.07" fill="#fff" fill-opacity="0.89"/><circle cx="477.7" cy="310.0" r="1.11" fill="#fff" fill-opacity="0.81"/><circle cx="245.4" cy="51.6" r="1.52" fill="#fff" fill-opacity="0.52"/><circle cx="292.6" cy="470.4" r="0.66" fill="#fff" fill-opacity="0.36"/><circle cx="74.1" cy="353.6" r="0.94" fill="#fff" fill-opacity="0.52"/><circle cx="270.9" cy="556.6" r="0.78" fill="#fff" fill-opacity="0.62"/><circle cx="527.6" cy="367.3" r="0.80" fill="#fff" fill-opacity="0.66"/><circle cx="287.1" cy="85.3" r="0.97" fill="#fff" fill-opacity="0.55"/><circle cx="482.8" cy="194.0" r="1.39" fill="#fff" fill-opacity="0.98"/><circle cx="553.8" cy="225.6" r="1.30" fill="#fff" fill-opacity="0.56"/><circle cx="239.0" cy="292.8" r="1.59" fill="#fff" fill-opacity="0.96"/><circle cx="174.5" cy="3.7" r="1.07" fill="#fff" fill-opacity="0.39"/><circle cx="18.1" cy="464.1" r="0.57" fill="#fff" fill-opacity="0.82"/><circle cx="217.2" cy="563.1" r="1.68" fill="#fff" fill-opacity="0.39"/><circle cx="115.6" cy="568.4" r="1.32" fill="#fff" fill-opacity="0.62"/><circle cx="469.4" cy="488.1" r="1.14" fill="#fff" fill-opacity="0.65"/><circle cx="60.1" cy="217.2" r="0.62" fill="#fff" fill-opacity="0.76"/><circle cx="363.9" cy="86.6" r="1.34" fill="#fff" fill-opacity="0.41"/><circle cx="63.3" cy="387.3" r="1.09" fill="#fff" fill-opacity="0.93"/><circle cx="377.5" cy="420.8" r="0.59" fill="#fff" fill-opacity="0.89"/><circle cx="50.1" cy="370.9" r="1.77" fill="#fff" fill-opacity="0.94"/><circle cx="536.0" cy="271.2" r="1.44" fill="#fff" fill-opacity="0.86"/><circle cx="82.2" cy="566.0" r="1.76" fill="#fff" fill-opacity="0.64"/><circle cx="467.1" cy="268.2" r="0.81" fill="#fff" fill-opacity="0.81"/><circle cx="38.2" cy="480.1" r="1.87" fill="#fff" fill-opacity="0.54"/><circle cx="563.8" cy="50.2" r="1.69" fill="#fff" fill-opacity="0.53"/><circle cx="579.7" cy="258.4" r="1.78" fill="#fff" fill-opacity="0.37"/><circle cx="51.4" cy="489.8" r="1.36" fill="#fff" fill-opacity="0.70"/><circle cx="19.6" cy="104.0" r="0.96" fill="#fff" fill-opacity="0.38"/><circle cx="595.8" cy="459.1" r="1.82" fill="#fff" fill-opacity="0.81"/><circle cx="206.1" cy="46.6" r="1.50" fill="#fff" fill-opacity="0.42"/><circle cx="328.3" cy="278.4" r="1.14" fill="#fff" fill-opacity="0.40"/><circle cx="44.4" cy="312.2" r="0.45" fill="#fff" fill-opacity="0.69"/><circle cx="90.2" cy="169.0" r="0.63" fill="#fff" fill-opacity="0.72"/><circle cx="233.0" cy="133.8" r="0.73" fill="#fff" fill-opacity="0.72"/><circle cx="546.3" cy="251.5" r="0.64" fill="#fff" fill-opacity="0.56"/><circle cx="144.2" cy="343.4" r="1.58" fill="#fff" fill-opacity="0.72"/><circle cx="112.9" cy="195.2" r="0.97" fill="#fff" fill-opacity="0.64"/><circle cx="238.5" cy="598.5" r="1.23" fill="#fff" fill-opacity="0.78"/><circle cx="429.8" cy="387.1" r="1.61" fill="#fff" fill-opacity="0.59"/><circle cx="399.9" cy="583.5" r="0.65" fill="#fff" fill-opacity="0.76"/><circle cx="230.8" cy="36.6" r="0.46" fill="#fff" fill-opacity="0.84"/><circle cx="68.8" cy="426.6" r="0.55" fill="#fff" fill-opacity="0.59"/><circle cx="19.3" cy="325.7" r="1.58" fill="#fff" fill-opacity="0.50"/><circle cx="339.2" cy="553.4" r="0.84" fill="#fff" fill-opacity="0.66"/><circle cx="434.5" cy="518.5" r="0.65" fill="#fff" fill-opacity="0.78"/><circle cx="72.0" cy="67.3" r="1.87" fill="#fff" fill-opacity="0.38"/><circle cx="551.9" cy="450.1" r="1.41" fill="#fff" fill-opacity="0.82"/><circle cx="390.6" cy="172.2" r="1.07" fill="#fff" fill-opacity="0.48"/><circle cx="515.6" cy="467.3" r="1.58" fill="#fff" fill-opacity="0.49"/><circle cx="355.3" cy="153.0" r="1.59" fill="#fff" fill-opacity="0.83"/><circle cx="597.1" cy="424.9" r="1.43" fill="#fff" fill-opacity="0.86"/><circle cx="56.2" cy="357.2" r="0.45" fill="#fff" fill-opacity="0.59"/><circle cx="70.3" cy="569.1" r="0.44" fill="#fff" fill-opacity="0.95"/><circle cx="568.7" cy="261.4" r="1.65" fill="#fff" fill-opacity="0.38"/><circle cx="83.6" cy="5.9" r="0.50" fill="#fff" fill-opacity="0.35"/><circle cx="497.0" cy="52.5" r="1.29" fill="#fff" fill-opacity="0.53"/><circle cx="79.4" cy="251.5" r="0.67" fill="#fff" fill-opacity="0.99"/><circle cx="230.3" cy="356.3" r="1.25" fill="#fff" fill-opacity="0.76"/><circle cx="288.3" cy="162.1" r="0.61" fill="#fff" fill-opacity="0.93"/><circle cx="115.5" cy="269.1" r="1.61" fill="#fff" fill-opacity="0.72"/><circle cx="568.8" cy="485.7" r="1.17" fill="#fff" fill-opacity="0.43"/><circle cx="355.6" cy="284.2" r="1.69" fill="#fff" fill-opacity="0.70"/><circle cx="416.6" cy="487.0" r="1.11" fill="#fff" fill-opacity="0.90"/><circle cx="539.6" cy="92.6" r="1.78" fill="#fff" fill-opacity="0.92"/><circle cx="513.0" cy="202.7" r="0.78" fill="#fff" fill-opacity="0.44"/><circle cx="222.6" cy="513.0" r="0.94" fill="#fff" fill-opacity="0.35"/><circle cx="183.0" cy="49.5" r="1.33" fill="#fff" fill-opacity="0.85"/><circle cx="556.0" cy="53.5" r="0.97" fill="#fff" fill-opacity="0.43"/><circle cx="546.3" cy="502.2" r="1.18" fill="#fff" fill-opacity="0.97"/><circle cx="312.2" cy="465.9" r="1.13" fill="#fff" fill-opacity="0.59"/><circle cx="596.6" cy="505.0" r="1.29" fill="#fff" fill-opacity="0.91"/><circle cx="389.7" cy="478.7" r="0.50" fill="#fff" fill-opacity="0.44"/><circle cx="65.6" cy="361.9" r="1.48" fill="#fff" fill-opacity="0.45"/><circle cx="303.1" cy="68.2" r="1.43" fill="#fff" fill-opacity="0.86"/><circle cx="52.0" cy="588.0" r="1.40" fill="#fff" fill-opacity="0.43"/><circle cx="210.6" cy="94.9" r="1.49" fill="#fff" fill-opacity="0.95"/><circle cx="105.1" cy="110.4" r="1.34" fill="#fff" fill-opacity="0.91"/><circle cx="443.4" cy="274.7" r="0.57" fill="#fff" fill-opacity="0.75"/><circle cx="273.3" cy="482.3" r="1.26" fill="#fff" fill-opacity="0.83"/><circle cx="582.7" cy="375.6" r="1.77" fill="#fff" fill-opacity="0.53"/><circle cx="0.9" cy="529.4" r="0.44" fill="#fff" fill-opacity="1.00"/><circle cx="273.4" cy="36.8" r="0.81" fill="#fff" fill-opacity="0.82"/><circle cx="230.4" cy="374.3" r="0.55" fill="#fff" fill-opacity="0.89"/><circle cx="223.9" cy="499.7" r="0.62" fill="#fff" fill-opacity="0.78"/><circle cx="281.4" cy="242.7" r="0.43" fill="#fff" fill-opacity="0.70"/><circle cx="502.8" cy="62.3" r="1.07" fill="#fff" fill-opacity="0.36"/><circle cx="596.5" cy="581.7" r="1.42" fill="#fff" fill-opacity="0.66"/><circle cx="42.2" cy="72.6" r="1.46" fill="#fff" fill-opacity="0.87"/><circle cx="593.4" cy="517.0" r="1.06" fill="#fff" fill-opacity="0.52"/><circle cx="325.1" cy="207.5" r="1.22" fill="#fff" fill-opacity="0.92"/><circle cx="271.8" cy="588.7" r="1.48" fill="#fff" fill-opacity="0.38"/><circle cx="448.1" cy="396.9" r="1.33" fill="#fff" fill-opacity="0.35"/><circle cx="527.3" cy="297.2" r="1.21" fill="#fff" fill-opacity="0.46"/><circle cx="21.3" cy="8.4" r="0.71" fill="#fff" fill-opacity="0.55"/><circle cx="92.4" cy="34.9" r="1.49" fill="#fff" fill-opacity="0.81"/><circle cx="529.2" cy="130.6" r="1.49" fill="#fff" fill-opacity="0.74"/><circle cx="54.1" cy="525.0" r="0.94" fill="#fff" fill-opacity="0.47"/><circle cx="110.0" cy="554.6" r="0.73" fill="#fff" fill-opacity="0.60"/><circle cx="328.2" cy="215.5" r="1.38" fill="#fff" fill-opacity="0.41"/><circle cx="258.0" cy="350.7" r="1.33" fill="#fff" fill-opacity="0.75"/><circle cx="161.5" cy="382.9" r="1.86" fill="#fff" fill-opacity="0.66"/><circle cx="386.4" cy="502.2" r="0.78" fill="#fff" fill-opacity="0.52"/><circle cx="582.1" cy="180.4" r="1.04" fill="#fff" fill-opacity="0.59"/><circle cx="595.9" cy="327.0" r="1.74" fill="#fff" fill-opacity="0.46"/><circle cx="166.6" cy="389.8" r="0.88" fill="#fff" fill-opacity="0.78"/><circle cx="304.6" cy="46.9" r="0.57" fill="#fff" fill-opacity="0.64"/><circle cx="320.2" cy="105.9" r="0.79" fill="#fff" fill-opacity="0.35"/><circle cx="159.6" cy="185.5" r="0.98" fill="#fff" fill-opacity="0.74"/><circle cx="511.6" cy="430.4" r="1.51" fill="#fff" fill-opacity="0.53"/><circle cx="297.3" cy="436.1" r="1.74" fill="#fff" fill-opacity="0.51"/><circle cx="9.0" cy="30.5" r="1.17" fill="#fff" fill-opacity="0.92"/><circle cx="92.0" cy="470.3" r="1.36" fill="#fff" fill-opacity="0.91"/><circle cx="540.6" cy="64.4" r="1.59" fill="#fff" fill-opacity="0.44"/><circle cx="71.2" cy="239.2" r="1.13" fill="#fff" fill-opacity="0.40"/><circle cx="165.4" cy="105.3" r="0.60" fill="#fff" fill-opacity="0.41"/><circle cx="14.3" cy="130.5" r="0.89" fill="#fff" fill-opacity="0.62"/><circle cx="416.7" cy="367.2" r="1.13" fill="#fff" fill-opacity="0.56"/><circle cx="368.8" cy="115.7" r="0.67" fill="#fff" fill-opacity="0.42"/><circle cx="401.6" cy="83.6" r="0.73" fill="#fff" fill-opacity="0.58"/><circle cx="338.4" cy="388.5" r="1.29" fill="#fff" fill-opacity="0.74"/><circle cx="115.6" cy="547.6" r="1.51" fill="#fff" fill-opacity="0.61"/><circle cx="237.9" cy="346.2" r="0.58" fill="#fff" fill-opacity="0.77"/><circle cx="541.7" cy="218.4" r="1.15" fill="#fff" fill-opacity="0.51"/><circle cx="545.7" cy="226.0" r="0.94" fill="#fff" fill-opacity="0.81"/><circle cx="223.5" cy="543.0" r="1.02" fill="#fff" fill-opacity="0.73"/><circle cx="182.9" cy="353.6" r="1.11" fill="#fff" fill-opacity="0.42"/><circle cx="533.4" cy="96.2" r="1.26" fill="#fff" fill-opacity="0.79"/><circle cx="281.2" cy="196.6" r="1.08" fill="#fff" fill-opacity="1.00"/><circle cx="7.1" cy="531.0" r="1.31" fill="#fff" fill-opacity="0.66"/><circle cx="382.7" cy="383.8" r="1.65" fill="#fff" fill-opacity="0.98"/><circle cx="309.1" cy="210.8" r="0.94" fill="#fff" fill-opacity="0.94"/><circle cx="288.0" cy="42.4" r="1.28" fill="#fff" fill-opacity="0.42"/><circle cx="208.1" cy="390.5" r="1.32" fill="#fff" fill-opacity="0.70"/><circle cx="497.7" cy="365.1" r="1.86" fill="#fff" fill-opacity="0.88"/><circle cx="158.5" cy="468.9" r="0.94" fill="#fff" fill-opacity="0.96"/><circle cx="371.5" cy="250.9" r="0.66" fill="#fff" fill-opacity="0.90"/><circle cx="211.6" cy="9.4" r="1.60" fill="#fff" fill-opacity="0.35"/><circle cx="26.8" cy="18.2" r="1.37" fill="#fff" fill-opacity="0.72"/><circle cx="290.1" cy="561.0" r="1.11" fill="#fff" fill-opacity="0.48"/><circle cx="597.9" cy="66.1" r="0.47" fill="#fff" fill-opacity="0.49"/><circle cx="585.9" cy="250.6" r="0.94" fill="#fff" fill-opacity="0.59"/><circle cx="222.2" cy="453.4" r="1.36" fill="#fff" fill-opacity="0.53"/><circle cx="114.2" cy="489.7" r="1.24" fill="#fff" fill-opacity="0.68"/><circle cx="120.5" cy="585.9" r="1.19" fill="#fff" fill-opacity="0.95"/><circle cx="404.3" cy="383.3" r="0.44" fill="#fff" fill-opacity="0.94"/><circle cx="512.8" cy="45.9" r="0.52" fill="#fff" fill-opacity="0.79"/><circle cx="400.6" cy="115.8" r="1.89" fill="#fff" fill-opacity="0.41"/><circle cx="341.3" cy="289.2" r="0.90" fill="#fff" fill-opacity="0.78"/><circle cx="264.5" cy="460.3" r="1.56" fill="#fff" fill-opacity="0.36"/><circle cx="195.7" cy="325.4" r="0.84" fill="#fff" fill-opacity="0.74"/><circle cx="17.5" cy="63.1" r="1.17" fill="#fff" fill-opacity="0.49"/><circle cx="124.6" cy="247.8" r="1.29" fill="#fff" fill-opacity="0.78"/><circle cx="359.1" cy="298.9" r="1.05" fill="#fff" fill-opacity="0.92"/><circle cx="518.1" cy="539.1" r="1.81" fill="#fff" fill-opacity="0.79"/><circle cx="119.6" cy="421.0" r="0.82" fill="#fff" fill-opacity="0.55"/><circle cx="240.4" cy="19.6" r="1.06" fill="#fff" fill-opacity="0.48"/><circle cx="139.7" cy="258.7" r="1.53" fill="#fff" fill-opacity="0.77"/><circle cx="188.9" cy="433.8" r="1.01" fill="#fff" fill-opacity="0.58"/><circle cx="245.2" cy="171.6" r="0.63" fill="#fff" fill-opacity="0.98"/><circle cx="357.6" cy="393.6" r="1.31" fill="#fff" fill-opacity="0.68"/><circle cx="377.6" cy="4.5" r="0.50" fill="#fff" fill-opacity="0.70"/><circle cx="278.8" cy="7.3" r="0.72" fill="#fff" fill-opacity="0.55"/><circle cx="580.6" cy="502.0" r="0.46" fill="#fff" fill-opacity="0.60"/><circle cx="210.1" cy="82.3" r="0.84" fill="#fff" fill-opacity="0.99"/><circle cx="550.3" cy="162.1" r="1.57" fill="#fff" fill-opacity="0.43"/><circle cx="379.3" cy="51.8" r="1.36" fill="#fff" fill-opacity="0.74"/><circle cx="596.3" cy="347.0" r="1.77" fill="#fff" fill-opacity="0.51"/><circle cx="374.7" cy="125.2" r="0.50" fill="#fff" fill-opacity="0.99"/><circle cx="16.2" cy="211.9" r="0.87" fill="#fff" fill-opacity="0.48"/><circle cx="513.9" cy="452.4" r="0.97" fill="#fff" fill-opacity="0.72"/><circle cx="497.9" cy="35.4" r="1.38" fill="#fff" fill-opacity="0.90"/><circle cx="363.4" cy="314.3" r="0.77" fill="#fff" fill-opacity="0.46"/><circle cx="106.0" cy="214.5" r="0.83" fill="#fff" fill-opacity="0.86"/><circle cx="96.0" cy="75.7" r="1.60" fill="#fff" fill-opacity="0.64"/><circle cx="68.7" cy="489.4" r="0.46" fill="#fff" fill-opacity="0.59"/><circle cx="243.3" cy="310.9" r="0.76" fill="#fff" fill-opacity="0.95"/><circle cx="348.5" cy="196.2" r="1.36" fill="#fff" fill-opacity="0.60"/><circle cx="336.2" cy="358.1" r="0.77" fill="#fff" fill-opacity="0.92"/><circle cx="56.0" cy="560.0" r="1.04" fill="#fff" fill-opacity="0.68"/><circle cx="64.2" cy="307.0" r="0.90" fill="#fff" fill-opacity="0.75"/><circle cx="411.8" cy="60.3" r="0.51" fill="#fff" fill-opacity="0.93"/><circle cx="123.3" cy="406.8" r="1.50" fill="#fff" fill-opacity="0.86"/><circle cx="3.3" cy="383.0" r="1.66" fill="#fff" fill-opacity="0.37"/><circle cx="4.3" cy="530.7" r="1.44" fill="#fff" fill-opacity="0.81"/><circle cx="461.2" cy="366.6" r="0.70" fill="#fff" fill-opacity="0.45"/><circle cx="9.0" cy="395.6" r="1.40" fill="#fff" fill-opacity="0.99"/><circle cx="147.1" cy="87.2" r="0.97" fill="#fff" fill-opacity="0.96"/><circle cx="142.1" cy="528.4" r="1.36" fill="#fff" fill-opacity="0.85"/><circle cx="69.2" cy="482.7" r="1.00" fill="#fff" fill-opacity="0.83"/><circle cx="28.9" cy="177.5" r="1.25" fill="#fff" fill-opacity="0.53"/><circle cx="323.1" cy="63.8" r="0.79" fill="#fff" fill-opacity="0.76"/><circle cx="197.2" cy="586.6" r="0.95" fill="#fff" fill-opacity="0.55"/><circle cx="240.7" cy="382.7" r="0.87" fill="#fff" fill-opacity="0.99"/><circle cx="120.0" cy="351.6" r="1.71" fill="#fff" fill-opacity="0.53"/><circle cx="139.9" cy="306.8" r="1.67" fill="#fff" fill-opacity="0.90"/><circle cx="513.9" cy="427.7" r="0.52" fill="#fff" fill-opacity="0.95"/><circle cx="94.3" cy="8.9" r="1.16" fill="#fff" fill-opacity="0.36"/><circle cx="26.0" cy="115.7" r="1.87" fill="#fff" fill-opacity="0.53"/><circle cx="511.1" cy="565.3" r="0.73" fill="#fff" fill-opacity="0.42"/><circle cx="129.8" cy="383.4" r="1.44" fill="#fff" fill-opacity="0.56"/><circle cx="468.0" cy="42.7" r="0.44" fill="#fff" fill-opacity="0.59"/><circle cx="395.5" cy="507.7" r="1.82" fill="#fff" fill-opacity="0.94"/><circle cx="582.0" cy="367.2" r="1.05" fill="#fff" fill-opacity="0.38"/><circle cx="341.4" cy="549.5" r="1.58" fill="#fff" fill-opacity="0.65"/><circle cx="384.9" cy="462.4" r="1.89" fill="#fff" fill-opacity="0.82"/><circle cx="354.2" cy="575.5" r="1.85" fill="#fff" fill-opacity="0.35"/><circle cx="578.6" cy="175.6" r="0.40" fill="#fff" fill-opacity="0.54"/><circle cx="77.2" cy="1.9" r="1.61" fill="#fff" fill-opacity="0.59"/><circle cx="68.0" cy="433.6" r="0.70" fill="#fff" fill-opacity="0.58"/><circle cx="244.2" cy="193.5" r="1.50" fill="#fff" fill-opacity="0.47"/><circle cx="487.3" cy="275.0" r="1.04" fill="#fff" fill-opacity="0.56"/><circle cx="551.0" cy="145.0" r="1.02" fill="#fff" fill-opacity="0.52"/><circle cx="73.4" cy="13.0" r="1.42" fill="#fff" fill-opacity="0.88"/><circle cx="190.4" cy="264.0" r="1.62" fill="#fff" fill-opacity="0.39"/><circle cx="164.4" cy="441.4" r="0.77" fill="#fff" fill-opacity="0.51"/><circle cx="317.8" cy="163.8" r="0.64" fill="#fff" fill-opacity="0.38"/><circle cx="590.2" cy="486.5" r="0.76" fill="#fff" fill-opacity="0.43"/><circle cx="312.2" cy="322.7" r="1.80" fill="#fff" fill-opacity="0.60"/><circle cx="78.7" cy="508.0" r="0.62" fill="#fff" fill-opacity="0.51"/><circle cx="131.8" cy="522.2" r="1.85" fill="#fff" fill-opacity="0.60"/><circle cx="378.6" cy="422.4" r="1.08" fill="#fff" fill-opacity="0.88"/><circle cx="189.1" cy="440.7" r="0.65" fill="#fff" fill-opacity="0.44"/><circle cx="93.4" cy="106.8" r="1.84" fill="#fff" fill-opacity="0.51"/><circle cx="392.5" cy="8.0" r="1.70" fill="#fff" fill-opacity="0.83"/><circle cx="400.2" cy="592.9" r="0.45" fill="#fff" fill-opacity="0.84"/><circle cx="72.1" cy="565.7" r="0.41" fill="#fff" fill-opacity="0.55"/><circle cx="330.4" cy="283.1" r="1.60" fill="#fff" fill-opacity="0.39"/><circle cx="533.3" cy="10.3" r="1.83" fill="#fff" fill-opacity="0.86"/><circle cx="10.2" cy="33.2" r="0.58" fill="#fff" fill-opacity="0.41"/><circle cx="99.9" cy="129.4" r="1.18" fill="#fff" fill-opacity="0.67"/><circle cx="149.8" cy="591.4" r="1.29" fill="#fff" fill-opacity="0.68"/><circle cx="498.3" cy="370.3" r="1.71" fill="#fff" fill-opacity="0.89"/><circle cx="215.1" cy="525.2" r="1.33" fill="#fff" fill-opacity="0.36"/><circle cx="199.4" cy="411.2" r="1.45" fill="#fff" fill-opacity="0.81"/><circle cx="463.6" cy="435.9" r="1.76" fill="#fff" fill-opacity="0.52"/><circle cx="543.8" cy="533.5" r="1.62" fill="#fff" fill-opacity="0.50"/><circle cx="361.4" cy="515.8" r="1.67" fill="#fff" fill-opacity="0.49"/><circle cx="24.6" cy="329.3" r="0.52" fill="#fff" fill-opacity="0.69"/><circle cx="71.8" cy="74.7" r="1.72" fill="#fff" fill-opacity="0.75"/><path d="M0,750 L0,673.0 L40,671.8 L80,669.8 L120,667.5 L160,665.4 L200,663.9 L240,663.2 L280,663.2 L320,663.8 L360,664.5 L400,664.7 L440,664.2 L480,662.5 L520,659.9 L560,656.4 L600,652.7 L600,750Z" fill="#0b1512"/><path d="M185.2,504.6 L199.8,536.6 L191.3,524.4 L204.5,568.6 L193.3,556.4 L209.2,600.5 L195.3,588.4 L213.8,632.5 L197.2,620.3 L218.5,664.5 L188.5,664.5 L188.5,678.4 L181.9,678.4 L181.9,664.5 L151.9,664.5 L173.2,620.3 L156.6,632.5 L175.1,588.4 L161.2,600.5 L177.1,556.4 L165.9,568.6 L179.0,524.4 L170.5,536.6Z" fill="#0b1512"/><path d="M185.4,511.9 L199.3,542.5 L191.3,530.8 L203.7,573.1 L193.1,561.5 L208.2,603.8 L195.0,592.1 L212.6,634.4 L196.8,622.7 L217.0,665.0 L188.6,665.0 L188.6,678.4 L182.3,678.4 L182.3,665.0 L153.8,665.0 L174.0,622.7 L158.2,634.4 L175.9,592.1 L162.7,603.8 L177.7,561.5 L167.1,573.1 L179.6,530.8 L171.5,542.5Z" fill="#0b1512"/><path d="M296.5,532.4 L309.7,559.1 L302.0,548.9 L314.0,585.8 L303.8,575.6 L318.2,612.4 L305.6,602.3 L322.4,639.1 L307.4,629.0 L326.6,665.8 L299.5,665.8 L299.5,677.4 L293.5,677.4 L293.5,665.8 L266.3,665.8 L285.6,629.0 L270.5,639.1 L287.4,602.3 L274.8,612.4 L289.1,575.6 L279.0,585.8 L290.9,548.9 L283.2,559.1Z" fill="#0b1512"/><path d="M336.3,467.7 L355.9,506.4 L344.5,491.7 L362.1,545.1 L347.1,530.4 L368.3,583.8 L349.7,569.1 L374.5,622.5 L352.3,607.8 L380.8,661.3 L340.7,661.3 L340.7,678.1 L331.8,678.1 L331.8,661.3 L291.8,661.3 L320.2,607.8 L298.0,622.5 L322.8,569.1 L304.3,583.8 L325.4,530.4 L310.5,545.1 L328.1,491.7 L316.7,506.4Z" fill="#0b1512"/><path d="M423.6,491.4 L439.3,525.8 L430.2,512.7 L444.3,560.2 L432.3,547.1 L449.3,594.7 L434.4,581.6 L454.2,629.1 L436.5,616.0 L459.2,663.5 L427.2,663.5 L427.2,678.5 L420.1,678.5 L420.1,663.5 L388.0,663.5 L410.8,616.0 L393.0,629.1 L412.9,581.6 L398.0,594.7 L415.0,547.1 L403.0,560.2 L417.0,512.7 L408.0,525.8Z" fill="#0b1512"/><path d="M498.2,506.4 L511.5,537.5 L503.8,525.7 L515.7,568.6 L505.6,556.8 L520.0,599.7 L507.4,587.9 L524.2,630.8 L509.1,619.0 L528.4,661.9 L501.3,661.9 L501.3,675.4 L495.2,675.4 L495.2,661.9 L468.0,661.9 L487.3,619.0 L472.3,630.8 L489.1,587.9 L476.5,599.7 L490.9,556.8 L480.7,568.6 L492.7,525.7 L484.9,537.5Z" fill="#0b1512"/><path d="M70.0,380.0 L103.0,453.6 L83.9,425.6 L113.5,527.2 L88.3,499.2 L124.0,600.8 L92.7,572.8 L134.5,674.4 L97.1,646.4 L145.0,748.0 L77.5,748.0 L77.5,780.0 L62.5,780.0 L62.5,748.0 L-5.0,748.0 L42.9,646.4 L5.5,674.4 L47.3,572.8 L16.0,600.8 L51.7,499.2 L26.5,527.2 L56.1,425.6 L37.0,453.6Z" fill="#070f0c"/><path d="M520.0,450.0 L548.6,510.7 L532.0,487.6 L557.7,571.4 L535.8,548.3 L566.8,632.2 L539.7,609.1 L575.9,692.9 L543.5,669.8 L585.0,753.6 L526.5,753.6 L526.5,780.0 L513.5,780.0 L513.5,753.6 L455.0,753.6 L496.5,669.8 L464.1,692.9 L500.3,609.1 L473.2,632.2 L504.2,548.3 L482.3,571.4 L508.0,487.6 L491.4,510.7Z" fill="#070f0c"/><path d="M430.0,570.0 L449.8,608.6 L438.3,593.9 L456.1,647.3 L441.0,632.6 L462.4,685.9 L443.6,671.2 L468.7,724.6 L446.3,709.9 L475.0,763.2 L434.5,763.2 L434.5,780.0 L425.5,780.0 L425.5,763.2 L385.0,763.2 L413.7,709.9 L391.3,724.6 L416.4,671.2 L397.6,685.9 L419.0,632.6 L403.9,647.3 L421.7,593.9 L410.2,608.6Z" fill="#0b1512"/></svg>