<svg xmlns="http://www.w3.org/2000/svg" viewBox="0 0 600 750" preserveAspectRatio="xMidYMid slice"><defs><linearGradient id="d0" x1="0" y1="0" x2="0" y2="1"><stop offset="0" stop-color="#2c3728"/><stop offset="1" stop-color="#1a2218"/></linearGradient><linearGradient id="d1" x1="0" y1="0" x2="0" y2="1"><stop offset="0" stop-color="#3a2716"/><stop offset="1" stop-color="#1c120a"/></linearGradient><linearGradient id="d2" x1="0" y1="0" x2="0" y2="1"><stop offset="0" stop-color="#5a3a22"/><stop offset="1" stop-color="#3a2213"/></linearGradient><radialGradient id="d3"><stop offset="0" stop-color="#f6c56f" stop-opacity="0.6"/><stop offset="1" stop-color="#f6c56f" stop-opacity="0"/></radialGradient><radialGradient id="d4"><stop offset="0" stop-color="#f6c56f" stop-opacity="0.7"/><stop offset="1" stop-color="#f6c56f" stop-opacity="0"/></radialGradient><radialGradient id="d5"><stop offset="0" stop-color="#000" stop-opacity="0"/><stop offset="0.5" stop-color="#000" stop-opacity="0"/><stop offset="1" stop-color="#000" stop-opacity="0.68"/></radialGradient></defs><rect width="600" height="750" fill="url(#d0)"/><rect x="0" width="3" height="600" fill="#fff" fill-opacity=".05"/><circle cx="23" cy="20" r="2.5" fill="#c9b48a" fill-opacity=".12"/><circle cx="23" cy="80" r="2.5" fill="#c9b48a" fill-opacity=".12"/><circle cx="23" cy="140" r="2.5" fill="#c9b48a" fill-opacity=".12"/><circle cx="23" cy="200" r="2.5" fill="#c9b48a" fill-opacity=".12"/><circle cx="23" cy="260" r="2.5" fill="#c9b48a" fill-opacity=".12"/><circle cx="23" cy="320" r="2.5" fill="#c9b48a" fill-opacity=".12"/><circle cx="23" cy="380" r="2.5" fill="#c9b48a" fill-opacity=".12"/><circle cx="23" cy="440" r="2.5" fill="#c9b48a" fill-opacity=".12"/><circle cx="23" cy="500" r="2.5" fill="#c9b48a" fill-opacity=".12"/><circle cx="23" cy="560" r="2.5" fill="#c9b48a" fill-opacity=".12"/><rect x="46" width="3" height="600" fill="#fff" fill-opacity=".05"/><circle cx="69" cy="20" r="2.5" fill="#c9b48a" fill-opacity=".12"/><circle cx="69" cy="80" r="2.5" fill="#c9b48a" fill-opacity=".12"/><circle cx="69" cy="140" r="2.5" fill="#c9b48a" fill-opacity=".12"/><circle cx="69" cy="200" r="2.5" fill="#c9b48a" fill-opacity=".12"/><circle cx="69" cy="260" r="2.5" fill="#c9b48a" fill-opacity=".12"/><circle cx="69" cy="320" r="2.5" fill="#c9b48a" fill-opacity=".12"/><circle cx="69" cy="380" r="2.5" fill="#c9b48a" fill-opacity=".12"/><circle cx="69" cy="440" r="2.5" fill="#c9b48a" fill-opacity=".12"/><circle cx="69" cy="500" r="2.5" fill="#c9b48a" fill-opacity=".12"/><circle cx="69" cy="560" r="2.5" fill="#c9b48a" fill-opacity=".12"/><rect x="92" width="3" height="600" fill="#fff" fill-opacity=".05"/><circle cx="115" cy="20" r="2.5" fill="#c9b48a" fill-opacity=".12"/><circle cx="115" cy="80" r="2.5" fill="#c9b48a" fill-opacity=".12"/><circle cx="115" cy="140" r="2.5" fill="#c9b48a" fill-opacity=".12"/><circle cx="115" cy="200" r="2.5" fill="#c9b48a" fill-opacity=".12"/><circle cx="115" cy="260" r="2.5" fill="#c9b48a" fill-opacity=".12"/><circle cx="115" cy="320" r="2.5" fill="#c9b48a" fill-opacity=".12"/><circle cx="115" cy="380" r="2.5" fill="#c9b48a" fill-opacity=".12"/><circle cx="115" cy="440" r="2.5" fill="#c9b48a" fill-opacity=".12"/><circle cx="115" cy="500" r="2.5" fill="#c9b48a" fill-opacity=".12"/><circle cx="115" cy="560" r="2.5" fill="#c9b48a" fill-opacity=".12"/><rect x="138" width="3" height="600" fill="#fff" fill-opacity=".05"/><circle cx="161" cy="20" r="2.5" fill="#c9b48a" fill-opacity=".12"/><circle cx="161" cy="80" r="2.5" fill="#c9b48a" fill-opacity=".12"/><circle cx="161" cy="140" r="2.5" fill="#c9b48a" fill-opacity=".12"/><circle cx="161" cy="200" r="2.5" fill="#c9b48a" fill-opacity=".12"/><circle cx="161" cy="260" r="2.5" fill="#c9b48a" fill-opacity=".12"/><circle cx="161" cy="320" r="2.5" fill="#c9b48a" fill-opacity=".12"/><circle cx="161" cy="380" r="2.5" fill="#c9b48a" fill-opacity=".12"/><circle cx="161" cy="440" r="2.5" fill="#c9b48a" fill-opacity=".12"/><circle cx="161" cy="500" r="2.5" fill="#c9b48a" fill-opacity=".12"/><circle cx="161" cy="560" r="2.5" fill="#c9b48a" fill-opacity=".12"/><rect x="184" width="3" height="600" fill="#fff" fill-opacity=".05"/><circle cx="207" cy="20" r="2.5" fill="#c9b48a" fill-opacity=".12"/><circle cx="207" cy="80" r="2.5" fill="#c9b48a" fill-opacity=".12"/><circle cx="207" cy="140" r="2.5" fill="#c9b48a" fill-opacity=".12"/><circle cx="207" cy="200" r="2.5" fill="#c9b48a" fill-opacity=".12"/><circle cx="207" cy="260" r="2.5" fill="#c9b48a" fill-opacity=".12"/><circle cx="207" cy="320" r="2.5" fill="#c9b48a" fill-opacity=".12"/><circle cx="207" cy="380" r="2.5" fill="#c9b48a" fill-opacity=".12"/><circle cx="207" cy="440" r="2.5" fill="#c9b48a" fill-opacity=".12"/><circle cx="207" cy="500" r="2.5" fill="#c9b48a" fill-opacity=".12"/><circle cx="207" cy="560" r="2.5" fill="#c9b48a" fill-opacity=".12"/><rect x="230" width="3" height="600" fill="#fff" fill-opacity=".05"/><circle cx="253" cy="20" r="2.5" fill="#c9b48a" fill-opacity=".12"/><circle cx="253" cy="80" r="2.5" fill="#c9b48a" fill-opacity=".12"/><circle cx="253" cy="140" r="2.5" fill="#c9b48a" fill-opacity=".12"/><circle cx="253" cy="200" r="2.5" fill="#c9b48a" fill-opacity=".12"/><circle cx="253" cy="260" r="2.5" fill="#c9b48a" fill-opacity=".12"/><circle cx="253" cy="320" r="2.5" fill="#c9b48a" fill-opacity=".12"/><circle cx="253" cy="380" r="2.5" fill="#c9b48a" fill-opacity=".12"/><circle cx="253" cy="440" r="2.5" fill="#c9b48a" fill-opacity=".12"/><circle cx="253" cy="500" r="2.5" fill="#c9b48a" fill-opacity=".12"/><circle cx="253" cy="560" r="2.5" fill="#c9b48a" fill-opacity=".12"/><rect x="276" width="3" height="600" fill="#fff" fill-opacity=".05"/><circle cx="299" cy="20" r="2.5" fill="#c9b48a" fill-opacity=".12"/><circle cx="299" cy="80" r="2.5" fill="#c9b48a" fill-opacity=".12"/><circle cx="299" cy="140" r="2.5" fill="#c9b48a" fill-opacity=".12"/><circle cx="299" cy="200" r="2.5" fill="#c9b48a" fill-opacity=".12"/><circle cx="299" cy="260" r="2.5" fill="#c9b48a" fill-opacity=".12"/><circle cx="299" cy="320" r="2.5" fill="#c9b48a" fill-opacity=".12"/><circle cx="299" cy="380" r="2.5" fill="#c9b48a" fill-opacity=".12"/><circle cx="299" cy="440" r="2.5" fill="#c9b48a" fill-opacity=".12"/><circle cx="299" cy="500" r="2.5" fill="#c9b48a" fill-opacity=".12"/><circle cx="299" cy="560" r="2.5" fill="#c9b48a" fill-opacity=".12"/><rect x="322" width="3" height="600" fill="#fff" fill-opacity=".05"/><circle cx="345" cy="20" r="2.5" fill="#c9b48a" fill-opacity=".12"/><circle cx="345" cy="80" r="2.5" fill="#c9b48a" fill-opacity=".12"/><circle cx="345" cy="140" r="2.5" fill="#c9b48a" fill-opacity=".12"/><circle cx="345" cy="200" r="2.5" fill="#c9b48a" fill-opacity=".12"/><circle cx="345" cy="260" r="2.5" fill="#c9b48a" fill-opacity=".12"/><circle cx="345" cy="320" r="2.5" fill="#c9b48a" fill-opacity=".12"/><circle cx="345" cy="380" r="2.5" fill="#c9b48a" fill-opacity=".12"/><circle cx="345" cy="440" r="2.5" fill="#c9b48a" fill-opacity=".12"/><circle cx="345" cy="500" r="2.5" fill="#c9b48a" fill-opacity=".12"/><circle cx="345" cy="560" r="2.5" fill="#c9b48a" fill-opacity=".12"/><rect x="368" width="3" height="600" fill="#fff" fill-opacity=".05"/><circle cx="391" cy="20" r="2.5" fill="#c9b48a" fill-opacity=".12"/><circle cx="391" cy="80" r="2.5" fill="#c9b48a" fill-opacity=".12"/><circle cx="391" cy="140" r="2.5" fill="#c9b48a" fill-opacity=".12"/><circle cx="391" cy="200" r="2.5" fill="#c9b48a" fill-opacity=".12"/><circle cx="391" cy="260" r="2.5" fill="#c9b48a" fill-opacity=".12"/><circle cx="391" cy="320" r="2.5" fill="#c9b48a" fill-opacity=".12"/><circle cx="391" cy="380" r="2.5" fill="#c9b48a" fill-opacity=".12"/><circle cx="391" cy="440" r="2.5" fill="#c9b48a" fill-opacity=".12"/><circle cx="391" cy="500" r="2.5" fill="#c9b48a" fill-opacity=".12"/><circle cx="391" cy="560" r="2.5" fill="#c9b48a" fill-opacity=".12"/><rect x="414" width="3" height="600" fill="#fff" fill-opacity=".05"/><circle cx="437" cy="20" r="2.5" fill="#c9b48a" fill-opacity=".12"/><circle cx="437" cy="80" r="2.5" fill="#c9b48a" fill-opacity=".12"/><circle cx="437" cy="140" r="2.5" fill="#c9b48a" fill-opacity=".12"/><circle cx="437" cy="200" r="2.5" fill="#c9b48a" fill-opacity=".12"/><circle cx="437" cy="260" r="2.5" fill="#c9b48a" fill-opacity=".12"/><circle cx="437" cy="320" r="2.5" fill="#c9b48a" fill-opacity=".12"/><circle cx="437" cy="380" r="2.5" fill="#c9b48a" fill-opacity=".12"/><circle cx="437" cy="440" r="2.5" fill="#c9b48a" fill-opacity=".12"/><circle cx="437" cy="500" r="2.5" fill="#c9b48a" fill-opacity=".12"/><circle cx="437" cy="560" r="2.5" fill="#c9b48a" fill-opacity=".12"/><rect x="460" width="3" height="600" fill="#fff" fill-opacity=".05"/><circle cx="483" cy="20" r="2.5" fill="#c9b48a" fill-opacity=".12"/><circle cx="483" cy="80" r="2.5" fill="#c9b48a" fill-opacity=".12"/><circle cx="483" cy="140" r="2.5" fill="#c9b48a" fill-opacity=".12"/><circle cx="483" cy="200" r="2.5" fill="#c9b48a" fill-opacity=".12"/><circle cx="483" cy="260" r="2.5" fill="#c9b48a" fill-opacity=".12"/><circle cx="483" cy="320" r="2.5" fill="#c9b48a" fill-opacity=".12"/><circle cx="483" cy="380" r="2.5" fill="#c9b48a" fill-opacity=".12"/><circle cx="483" cy="440" r="2.5" fill="#c9b48a" fill-opacity=".12"/><circle cx="483" cy="500" r="2.5" fill="#c9b48a" fill-opacity=".12"/><circle cx="483" cy="560" r="2.5" fill="#c9b48a" fill-opacity=".12"/><rect x="506" width="3" height="600" fill="#fff" fill-opacity=".05"/><circle cx="529" cy="20" r="2.5" fill="#c9b48a" fill-opacity=".12"/><circle cx="529" cy="80" r="2.5" fill="#c9b48a" fill-opacity=".12"/><circle cx="529" cy="140" r="2.5" fill="#c9b48a" fill-opacity=".12"/><circle cx="529" cy="200" r="2.5" fill="#c9b48a" fill-opacity=".12"/><circle cx="529" cy="260" r="2.5" fill="#c9b48a" fill-opacity=".12"/><circle cx="529" cy="320" r="2.5" fill="#c9b48a" fill-opacity=".12"/><circle cx="529" cy="380" r="2.5" fill="#c9b48a" fill-opacity=".12"/><circle cx="529" cy="440" r="2.5" fill="#c9b48a" fill-opacity=".12"/><circle cx="529" cy="500" r="2.5" fill="#c9b48a" fill-opacity=".12"/><circle cx="529" cy="560" r="2.5" fill="#c9b48a" fill-opacity=".12"/><rect x="552" width="3" height="600" fill="#fff" fill-opacity=".05"/><circle cx="575" cy="20" r="2.5" fill="#c9b48a" fill-opacity=".12"/><circle cx="575" cy="80" r="2.5" fill="#c9b48a" fill-opacity=".12"/><circle cx="575" cy="140" r="2.5" fill="#c9b48a" fill-opacity=".12"/><circle cx="575" cy="200" r="2.5" fill="#c9b48a" fill-opacity=".12"/><circle cx="575" cy="260" r="2.5" fill="#c9b48a" fill-opacity=".12"/><circle cx="575" cy="320" r="2.5" fill="#c9b48a" fill-opacity=".12"/><circle cx="575" cy="380" r="2.5" fill="#c9b48a" fill-opacity=".12"/><circle cx="575" cy="440" r="2.5" fill="#c9b48a" fill-opacity=".12"/><circle cx="575" cy="500" r="2.5" fill="#c9b48a" fill-opacity=".12"/><circle cx="575" cy="560" r="2.5" fill="#c9b48a" fill-opacity=".12"/><rect x="598" width="3" height="600" fill="#fff" fill-opacity=".05"/><circle cx="621" cy="20" r="2.5" fill="#c9b48a" fill-opacity=".12"/><circle cx="621" cy="80" r="2.5" fill="#c9b48a" fill-opacity=".12"/><circle cx="621" cy="140" r="2.5" fill="#c9b48a" fill-opacity=".12"/><circle cx="621" cy="200" r="2.5" fill="#c9b48a" fill-opacity=".12"/><circle cx="621" cy="260" r="2.5" fill="#c9b48a" fill-opacity=".12"/><circle cx="621" cy="320" r="2.5" fill="#c9b48a" fill-opacity=".12"/><circle cx="621" cy="380" r="2.5" fill="#c9b48a" fill-opacity=".12"/><circle cx="621" cy="440" r="2.5" fill="#c9b48a" fill-opacity=".12"/><circle cx="621" cy="500" r="2.5" fill="#c9b48a" fill-opacity=".12"/><circle cx="621" cy="560" r="2.5" fill="#c9b48a" fill-opacity=".12"/><rect y="600" width="600" height="10" fill="#3a2716"/><rect y="610" width="600" height="140" fill="url(#d1)"/><path d="M1,610 L-40,750" stroke="#000" stroke-opacity=".35" stroke-width="1.6"/><path d="M63,610 L22,750" stroke="#000" stroke-opacity=".35" stroke-width="1.6"/><path d="M125,610 L84,750" stroke="#000" stroke-opacity=".35" stroke-width="1.6"/><path d="M187,610 L146,750" stroke="#000" stroke-opacity=".35" stroke-width="1.6"/><path d="M249,610 L208,750" stroke="#000" stroke-opacity=".35" stroke-width="1.6"/><path d="M311,610 L270,750" stroke="#000" stroke-opacity=".35" stroke-width="1.6"/><path d="M373,610 L332,750" stroke="#000" stroke-opacity=".35" stroke-width="1.6"/><path d="M435,610 L394,750" stroke="#000" stroke-opacity=".35" stroke-width="1.6"/><path d="M497,610 L456,750" stroke="#000" stroke-opacity=".35" stroke-width="1.6"/><path d="M559,610 L518,750" stroke="#000" stroke-opacity=".35" stroke-width="1.6"/><path d="M621,610 L580,750" stroke="#000" stroke-opacity=".35" stroke-width="1.6"/><rect y="638.0" width="600" height="1.2" fill="#000" fill-opacity=".22"/><rect y="666.0" width="600" height="1.2" fill="#000" fill-opacity=".22"/><rect y="694.0" width="600" height="1.2" fill="#000" fill-opacity=".22"/><rect y="722.0" width="600" height="1.2" fill="#000" fill-opacity=".22"/><ellipse cx="300" cy="700" rx="280" ry="40" fill="#8a5a2f" fill-opacity=".85"/><ellipse cx="300" cy="700" rx="240" ry="30" fill="none" stroke="#e6cf9a" stroke-width="2.5"/><ellipse cx="330" cy="624" rx="230" ry="12" fill="#000" fill-opacity=".45"/><path d="M120,610 V250 Q120,190 190,190 H430 Q500,190 500,250 V610Z" fill="url(#d2)"/><path d="M150,600 V262 Q150,224 196,224 H424 Q470,224 470,262 V600Z" fill="none" stroke="#000" stroke-opacity=".35" stroke-width="3"/><circle cx="125" cy="192" r="12" fill="#6a4529"/><circle cx="495" cy="192" r="12" fill="#6a4529"/><ellipse cx="310" cy="112" rx="66" ry="84" fill="#5a3a22"/><ellipse cx="310" cy="112" rx="56" ry="74" fill="#3d4a4a"/><path d="M270,150 Q300,60 350,70" stroke="#fff" stroke-opacity=".14" stroke-width="10" fill="none"/><ellipse cx="310" cy="112" rx="56" ry="74" fill="none" stroke="#c99a4b" stroke-opacity=".7" stroke-width="2"/><rect x="130" y="380" width="360" height="230" rx="10" fill="#d8c9a5"/><rect x="130" y="440" width="360" height="18" fill="#b98a3f" fill-opacity=".85"/><rect x="130" y="474" width="360" height="18" fill="#7c3238" fill-opacity=".85"/><rect x="130" y="508" width="360" height="18" fill="#b98a3f" fill-opacity=".85"/><rect x="130" y="542" width="360" height="18" fill="#3f5a3f" fill-opacity=".85"/><rect x="130" y="576" width="360" height="18" fill="#b98a3f" fill-opacity=".85"/><rect x="130" y="380" width="360" height="52" rx="10" fill="#efe3c6"/><rect x="130" y="424" width="360" height="9" fill="#000" fill-opacity=".14"/><ellipse cx="225" cy="372" rx="80" ry="34" fill="#f2e8d0"/><ellipse cx="395" cy="372" rx="80" ry="34" fill="#efe3c6"/><ellipse cx="225" cy="384" rx="80" ry="14" fill="#000" fill-opacity=".1"/><rect x="110" y="560" width="400" height="70" rx="6" fill="url(#d2)"/><circle cx="118" cy="552" r="11" fill="#6a4529"/><circle cx="502" cy="552" r="11" fill="#6a4529"/><rect x="516" y="500" width="76" height="120" fill="#3c2618"/><rect x="510" y="494" width="88" height="10" fill="#5a3a24"/><rect x="526" y="520" width="56" height="34" fill="none" stroke="#000" stroke-opacity=".4" stroke-width="2"/><circle cx="554" cy="537" r="3" fill="#b58a3c"/><circle cx="552.0" cy="440.0" r="260.0" fill="url(#d3)"/><circle cx="552.0" cy="456.0" r="120.0" fill="url(#d4)"/><rect x="547.5" y="462.0" width="9" height="32" rx="1.5" fill="#efe3c6"/><rect x="553.1" y="462.0" width="3.4" height="32" fill="#000" fill-opacity=".12"/><rect x="551.4" y="458.0" width="1.2" height="4" fill="#2a1c10"/><path d="M552.0,445.0 C557.4,452.0 556.5,459.0 552.0,460.0 C547.5,459.0 546.6,452.0 552.0,445.0Z" fill="#ffd98a"/><path d="M552.0,451.0 C554.2,454.0 553.8,458.0 552.0,459.0 C550.2,458.0 549.8,454.0 552.0,451.0Z" fill="#fff3cf"/><rect x="524" y="482" width="56" height="12" rx="3" fill="#b58a3c" fill-opacity=".9"/><rect width="600" height="750" fill="url(#d5)"/></svg>